<?xml version="1.0" encoding="UTF-8"?>
<svg xmlns="http://www.w3.org/2000/svg" onmouseup="{ if(window.parent.document.onmouseup) window.parent.document.onmouseup(arguments[0]);}" viewBox="0 0 905.64 96.69" data-name="Capa 1" id="Capa_1"><defs><style>.cls-1{fill:#fff;}</style></defs><path data-cppathid="10000" d="M26.5,38.3h6.68C32.59,47.82,16.23,44.15,15.81,50v.71c.34,3,3.55,4.63,11.48,4.63,7,0,10-1.75,10.82-4.18a10,10,0,0,0,.29-1.58h7.05a16.66,16.66,0,0,1-.83,3.71C43.11,57.09,38.52,61.1,27,61.1c-13.86,0-18.83-3.17-19-9.35V50.66C8.34,40.68,25.16,44.52,26.5,38.3Zm7-10.68v8.1H26.21v-8.1Z" class="cls-1"/><path data-cppathid="10001" d="M83.14,62.43a16,16,0,0,0,4.68,1.13l-3.3,5.22a23.33,23.33,0,0,1-7.3-2.46,26.56,26.56,0,0,1-6.43-5l-2.22-.13a25,25,0,0,1-14.69-5.3c-3.76-3.13-5.51-6.51-5.51-11.4A13.88,13.88,0,0,1,53,33.63c4.26-4.18,11-6,19.67-6s14.9,1.84,19.49,5.76c3.59,3,4.8,6.64,4.8,11.15a14.7,14.7,0,0,1-4.76,11.06,23.27,23.27,0,0,1-12.52,5.09A15.12,15.12,0,0,0,83.14,62.43Zm4.18-11a8.71,8.71,0,0,0,2.88-6.76,8.44,8.44,0,0,0-3.09-6.89c-3.17-2.67-7.47-4.09-14.45-4.09-6.63,0-11.77,1.5-14.48,4.09a8.86,8.86,0,0,0-3,6.89,8.33,8.33,0,0,0,3.76,7.43c3.38,2.51,7.68,3.59,13.78,3.59C79.43,55.67,84.06,54.5,87.32,51.41Z" class="cls-1"/><path data-cppathid="10002" d="M137.87,61H131.6l-.16-4.14c-3,3.88-8.77,4.72-14.2,4.72-8.39,0-13.48-2.51-13.48-9.81,0-13.24-.17-13.4-.42-13.74H110c.21,0,.25,5.64.25,11.57,0,5,2.46,6.55,9.6,6.55,6.85,0,11.4-2.84,11.4-6.68V38.05h6.51V56.38C137.74,59.64,137.87,60.89,137.87,61Z" class="cls-1"/><path data-cppathid="10003" d="M182.11,56.38c-2.55,2.63-7.89,5.18-17.45,5.18-8.77,0-15.16-1.92-18-6.26a10.79,10.79,0,0,1-1.75-6.06,9.78,9.78,0,0,1,1.8-5.63c3-4,9.51-6.35,17.91-6.35,10.31,0,17.24,3.59,18.87,10a22.28,22.28,0,0,1,.58,4.38H151.34A4.12,4.12,0,0,0,153.22,54c2,1.71,5.89,2.8,11.81,2.8a25.86,25.86,0,0,0,9.48-1.46,6.84,6.84,0,0,0,2-1.51h7.09A7.06,7.06,0,0,1,182.11,56.38Zm-5.93-11.31c-1.54-1.63-5.59-2.92-11.73-2.92-5.84,0-10.48,1.25-12.11,3.13a3.76,3.76,0,0,0-1,2.17h26.18A3.39,3.39,0,0,0,176.18,45.07Zm-9.64-16.49h6.76l-6.39,7.22h-6Z" class="cls-1"/><path data-cppathid="10004" d="M243.64,56.38c-2.55,2.63-7.9,5.18-17.46,5.18-8.76,0-15.15-1.92-18-6.26a10.71,10.71,0,0,1-1.75-6.06,9.85,9.85,0,0,1,1.79-5.63c3-4,9.52-6.35,17.91-6.35,10.31,0,17.24,3.59,18.87,10a22.3,22.3,0,0,1,.59,4.38H212.87A4.08,4.08,0,0,0,214.75,54c2,1.71,5.88,2.8,11.81,2.8A25.94,25.94,0,0,0,236,55.34a6.79,6.79,0,0,0,2-1.51h7.1A7.06,7.06,0,0,1,243.64,56.38Zm-5.93-11.31c-1.55-1.63-5.6-2.92-11.73-2.92-5.85,0-10.48,1.25-12.11,3.13a3.64,3.64,0,0,0-1,2.17H239A3.41,3.41,0,0,0,237.71,45.07Z" class="cls-1"/><path data-cppathid="10005" d="M267.26,61.52c-12.32,0-16.79-1.84-18.16-6.43a5.49,5.49,0,0,1-.3-1.55h6.31a2,2,0,0,0,.46,1.25c1,1.13,4.05,1.76,11.73,1.76,9.72,0,11.1-1.09,11.1-2.51,0-1.58-1.25-1.92-9.68-2.33-1.63-.09-4.55-.3-6.52-.42-9.22-.54-12.81-2.67-12.81-6.85,0-4.59,5.34-7.18,16-7.18s15.57,1.59,17.32,5.89a6.78,6.78,0,0,1,.38,1.83h-6.3a2.61,2.61,0,0,0-.38-.87c-1-1.09-3.84-1.8-10.6-1.8-9.19,0-10.36.88-10.36,2.17s1,1.67,9,2.09c2,.13,5,.29,7,.38,9.73.37,13.07,2.5,13.07,7C284.5,58.89,279.82,61.52,267.26,61.52Z" class="cls-1"/><path data-cppathid="10006" d="M344.86,56.38c-2.55,2.63-7.9,5.18-17.46,5.18-8.76,0-15.15-1.92-18-6.26a10.71,10.71,0,0,1-1.75-6.06,9.78,9.78,0,0,1,1.79-5.63c3-4,9.52-6.35,17.91-6.35,10.31,0,17.24,3.59,18.87,10a22.28,22.28,0,0,1,.58,4.38H314.09A4.08,4.08,0,0,0,316,54c2,1.71,5.88,2.8,11.81,2.8a25.94,25.94,0,0,0,9.48-1.46,6.79,6.79,0,0,0,2-1.51h7.1A7.06,7.06,0,0,1,344.86,56.38Zm-5.93-11.31c-1.55-1.63-5.6-2.92-11.74-2.92-5.84,0-10.47,1.25-12.1,3.13a3.64,3.64,0,0,0-1,2.17h26.17A3.41,3.41,0,0,0,338.93,45.07Z" class="cls-1"/><path data-cppathid="10007" d="M354,61c-.25-.09-.42-.92-.42-2.34V31.25a15.61,15.61,0,0,0-.21-3.26h6.43a19.33,19.33,0,0,1,.17,3.13V58.34c0,1.21.08,2.51.5,2.68Z" class="cls-1"/><path data-cppathid="10008" d="M404.25,61.52c-12.32,0-16.79-1.84-18.16-6.43a5.49,5.49,0,0,1-.3-1.55h6.31a2,2,0,0,0,.46,1.25c1,1.13,4.05,1.76,11.73,1.76,9.73,0,11.1-1.09,11.1-2.51,0-1.58-1.25-1.92-9.68-2.33-1.63-.09-4.55-.3-6.52-.42-9.22-.54-12.81-2.67-12.81-6.85,0-4.59,5.34-7.18,16-7.18s15.57,1.59,17.32,5.89a6.41,6.41,0,0,1,.38,1.83h-6.3a2.42,2.42,0,0,0-.38-.87c-1-1.09-3.84-1.8-10.6-1.8-9.19,0-10.36.88-10.36,2.17s1,1.67,9,2.09c2,.13,5,.29,7,.38,9.73.37,13.07,2.5,13.07,7C421.49,58.89,416.81,61.52,404.25,61.52Z" class="cls-1"/><path data-cppathid="10009" d="M456.05,61a16.24,16.24,0,0,1-.38-2.63c-1.5,1.54-6.55,3.13-15.19,3.13-9.31,0-14.49-2.09-14.49-6.77v-.62c0-5,5-7.52,18.12-7.56,3.21,0,8.77.33,11.65.63a4.26,4.26,0,0,0-.67-2.43c-1-1.33-4-2.46-10.48-2.46-5.89,0-8.81.71-10,1.88a2.5,2.5,0,0,0-.54,1.38H427.7a7.16,7.16,0,0,1,.38-1.8c1.46-4,6.59-6.47,16.24-6.47,10.89,0,15.78,2.42,17,7.56a23.23,23.23,0,0,1,.37,4.84c0,.84-.08,3.88-.08,5.76a18.62,18.62,0,0,0,.71,5.56ZM443.57,50.87c-6.14,0-9,.71-10.27,1.84a2,2,0,0,0-.55,1.37,1.45,1.45,0,0,0,.34,1.09c1,1.13,3.71,1.75,8.22,1.75,8.81,0,14.45-1,14.45-5.55C453,51.12,448,50.87,443.57,50.87Z" class="cls-1"/><path data-cppathid="10010" d="M498.71,61c-.3,0-.46-1.38-.46-11.19,0-4.55-3.09-6.89-9.9-6.89-5.8,0-11.1,2.71-11.1,6.93V61h-6.43v-23H477v5.31c2.09-4.47,8.18-6,14.07-6,9.93,0,13.61,4.89,13.61,11.36,0,11.65.12,11.86.33,12.32Z" class="cls-1"/><path data-cppathid="10011" d="M548.75,56.38c-2.54,2.63-7.89,5.18-17.45,5.18-8.76,0-15.15-1.92-18-6.26a10.73,10.73,0,0,1-1.76-6.06,9.78,9.78,0,0,1,1.8-5.63c3-4,9.52-6.35,17.91-6.35,10.31,0,17.24,3.59,18.87,10a22.28,22.28,0,0,1,.58,4.38H518A4.06,4.06,0,0,0,519.86,54c2,1.71,5.89,2.8,11.82,2.8a25.94,25.94,0,0,0,9.48-1.46,6.79,6.79,0,0,0,2-1.51h7.1A7.1,7.1,0,0,1,548.75,56.38Zm-5.92-11.31c-1.55-1.63-5.6-2.92-11.74-2.92-5.84,0-10.47,1.25-12.1,3.13a3.64,3.64,0,0,0-1,2.17h26.17A3.41,3.41,0,0,0,542.83,45.07Z" class="cls-1"/><path data-cppathid="10012" d="M584.48,61a16.53,16.53,0,0,1-.37-2.63c-1.51,1.54-6.56,3.13-15.2,3.13-9.31,0-14.49-2.09-14.49-6.77v-.62c0-5,5-7.52,18.12-7.56,3.22,0,8.77.33,11.65.63a4.18,4.18,0,0,0-.67-2.43c-1-1.33-4-2.46-10.48-2.46-5.88,0-8.81.71-10,1.88a2.44,2.44,0,0,0-.55,1.38h-6.38a7.13,7.13,0,0,1,.37-1.8c1.46-4,6.6-6.47,16.24-6.47,10.9,0,15.78,2.42,17,7.56a23.87,23.87,0,0,1,.38,4.84c0,.84-.09,3.88-.09,5.76a18.62,18.62,0,0,0,.71,5.56ZM572,50.87c-6.14,0-9,.71-10.27,1.84a2,2,0,0,0-.54,1.37,1.48,1.48,0,0,0,.33,1.09c1,1.13,3.72,1.75,8.22,1.75,8.81,0,14.45-1,14.45-5.55C581.43,51.12,576.47,50.87,572,50.87Z" class="cls-1"/><path data-cppathid="10013" d="M648.1,49.87c0-3.76-1.75-6.93-8.94-6.93-5,0-9.31,2-9.31,6.93V61h-6V49.33c0-3.93-3.5-6.39-8.68-6.39-5.84,0-9.52,3.3-9.52,6.8V61h-6.43v-23h6.22v5.31c1.63-3.93,6.89-5.89,11.94-5.89,5.31,0,10,1.75,11.53,6,1.75-3.92,6-6,12.19-6,9.39,0,12.6,4.59,12.6,11.23,0,11.73,0,12,.42,12.32h-5.59C648.1,61,648.1,58.55,648.1,49.87Z" class="cls-1"/><path data-cppathid="10014" d="M663.74,34.92V28.33h6.72v6.59Zm.67,26.1c-.38-.09-.54-1.13-.54-3.47V38.05h6.51V57.51c0,2.59,0,3.17.58,3.51Z" class="cls-1"/><path data-cppathid="10015" d="M715.51,56.38c-2.55,2.63-7.89,5.18-17.45,5.18-8.77,0-15.16-1.92-18-6.26a10.71,10.71,0,0,1-1.75-6.06,9.85,9.85,0,0,1,1.79-5.63c3-4,9.52-6.35,17.91-6.35,10.31,0,17.24,3.59,18.87,10a22.3,22.3,0,0,1,.59,4.38H684.74A4.12,4.12,0,0,0,686.62,54c2,1.71,5.88,2.8,11.81,2.8a25.9,25.9,0,0,0,9.48-1.46,6.79,6.79,0,0,0,2-1.51H717A7.06,7.06,0,0,1,715.51,56.38Zm-5.93-11.31c-1.55-1.63-5.6-2.92-11.73-2.92-5.85,0-10.48,1.25-12.11,3.13a3.64,3.64,0,0,0-1,2.17h26.17A3.41,3.41,0,0,0,709.58,45.07Z" class="cls-1"/><path data-cppathid="10016" d="M751.61,61c-.29,0-.46-1.38-.46-11.19,0-4.55-3.09-6.89-9.89-6.89-5.81,0-11.11,2.71-11.11,6.93V61h-6.43v-23h6.22v5.31c2.09-4.47,8.19-6,14.07-6,9.94,0,13.61,4.89,13.61,11.36,0,11.65.13,11.86.34,12.32Z" class="cls-1"/><path data-cppathid="10017" d="M775.86,43.69v8.39c0,3.05,1.33,4.18,5,4.18a42.34,42.34,0,0,0,6.06-.51v4.93a34.56,34.56,0,0,1-8.06.84c-5.59,0-9.43-1.8-9.43-8.1V43.69h-7.06v-5.3h7.06c.16-1.55.16-5.89.16-5.89l6.22-.17v6.06h11.36v5.3Z" class="cls-1"/><path data-cppathid="10018" d="M829.62,54.92c-2.84,4.09-8.93,6.6-18.37,6.6-8.89,0-15.19-2.51-18.16-6.52a10.2,10.2,0,0,1-1.83-5.59A8.86,8.86,0,0,1,793,44c3-4.09,9.06-6.72,18.24-6.72,9.52,0,15.37,2.92,18.21,6.6a9.17,9.17,0,0,1,.16,11Zm-6.26-8.81c-2.09-2-6.26-3.46-12.11-3.46s-9.77,1.33-12.14,3.5a4.79,4.79,0,0,0,0,6.6c1.92,2.13,6.3,3.59,12.1,3.59,6.14,0,10.19-1.34,12.24-3.63a5,5,0,0,0,1.33-3.26A4.28,4.28,0,0,0,823.36,46.11Z" class="cls-1"/><path data-cppathid="10019" d="M853.41,50.33h-6.76c.67-9.94,17-6.31,17.41-11.69a2,2,0,0,0,0-.71c-.3-3-3.47-4.47-11.4-4.47-7.06,0-10.06,1.75-10.85,4.13a7.18,7.18,0,0,0-.26,1.63h-7.09a16.66,16.66,0,0,1,.83-3.71c1.51-3.76,6.14-7.77,17.7-7.77,13.86,0,18.79,3.17,19,9.31v1.13C871.57,48.16,854.08,44.32,853.41,50.33Zm-7,10.69v-8.1h7.38V61Z" class="cls-1"/></svg>