<?xml version="1.0" encoding="UTF-8"?>
<svg xmlns="http://www.w3.org/2000/svg" onmouseup="{ if(window.parent.document.onmouseup) window.parent.document.onmouseup(arguments[0]);}" viewBox="0 0 817.68 95.58" data-name="Capa 1" id="Capa_1"><defs><style>.cls-1{fill:#fff;}</style></defs><path data-cppathid="10000" d="M66.37,57.48V34L51.59,57.48H44.7L30.3,34v23.5H23.7V24.87h8.52L48.33,51l16.2-26.1H73V57.48Z" class="cls-1"/><path data-cppathid="10001" d="M84,31.39v-6.6H90.7v6.6Zm.67,26.09c-.37-.08-.54-1.13-.54-3.47V34.52h6.51V54c0,2.59,0,3.18.59,3.51Z" class="cls-1"/><path data-cppathid="10002" d="M130.56,43.7c-.79-3-4.72-4.59-12.19-4.59-5.93,0-10.23,1.25-12.31,3.67A5.07,5.07,0,0,0,104.93,46a5.21,5.21,0,0,0,1.17,3.3c1.88,2.34,6.51,3.46,12.31,3.46s9-.83,10.65-2.17a6,6,0,0,0,1.46-1.83H137a9.3,9.3,0,0,1-1.92,4.09C132.4,56,127.18,58,118.37,58c-9.14,0-15.28-2.25-18-5.89a10,10,0,0,1-1.92-6.18,9.53,9.53,0,0,1,2-6c3-3.79,9.22-6.17,18-6.17,9,0,14.49,2.25,17,6a10,10,0,0,1,1.51,3.92Z" class="cls-1"/><path data-cppathid="10003" d="M169,40.7a38.45,38.45,0,0,0-7.35-.67c-5.63,0-11,3-11,9.14v8.31h-6.47v-23h6.27V40.4c1.12-3.21,5.55-5.8,11.06-6.13a33.91,33.91,0,0,1,7.47.21Z" class="cls-1"/><path data-cppathid="10004" d="M209.53,51.38c-2.83,4.1-8.93,6.6-18.36,6.6-8.9,0-15.2-2.5-18.16-6.51a10.17,10.17,0,0,1-1.84-5.6,8.81,8.81,0,0,1,1.75-5.38c3-4.09,9.06-6.72,18.25-6.72,9.51,0,15.36,2.92,18.2,6.59a9.17,9.17,0,0,1,.16,11Zm-6.26-8.81c-2.09-2-6.26-3.46-12.1-3.46S181.4,40.45,179,42.62a4.77,4.77,0,0,0,0,6.59c1.92,2.13,6.3,3.59,12.11,3.59,6.13,0,10.18-1.33,12.23-3.63a5,5,0,0,0,1.33-3.26A4.31,4.31,0,0,0,203.27,42.57Z" class="cls-1"/><path data-cppathid="10005" d="M254,51.38c-2.84,4.1-8.94,6.6-18.37,6.6-8.89,0-15.2-2.5-18.16-6.51a10.17,10.17,0,0,1-1.84-5.6,8.81,8.81,0,0,1,1.75-5.38c3-4.09,9.06-6.72,18.25-6.72,9.52,0,15.36,2.92,18.2,6.59a9.19,9.19,0,0,1,.17,11Zm-6.26-8.81c-2.09-2-6.27-3.46-12.11-3.46s-9.77,1.34-12.15,3.51a4.8,4.8,0,0,0,0,6.59c1.92,2.13,6.31,3.59,12.11,3.59,6.14,0,10.19-1.33,12.23-3.63a5,5,0,0,0,1.34-3.26A4.35,4.35,0,0,0,247.73,42.57Z" class="cls-1"/><path data-cppathid="10006" d="M287.59,40.7a38.53,38.53,0,0,0-7.35-.67c-5.64,0-11,3-11,9.14v8.31h-6.47v-23h6.26V40.4c1.13-3.21,5.55-5.8,11.06-6.13a34,34,0,0,1,7.48.21Z" class="cls-1"/><path data-cppathid="10007" d="M318.85,35.65c1.84-1.55,6.93-1.84,9.23-1.47v4.47c-2.55,0-5.43.17-6.18.63a5.36,5.36,0,0,1,1.71,2.84,7.34,7.34,0,0,1-.13,2.67c-.92,3.84-5.05,6.39-15.57,6.39a37.45,37.45,0,0,1-10.14-1.3,1.31,1.31,0,0,0-1.17,1.3c0,1,.87,1.58,13.06,1.58,13.53,0,17.58,1.46,17.58,5.89,0,5.05-6.43,7.39-19.79,7.39C293.22,66,289,63.28,289,60c0-2.55,2.92-3.8,5.39-4.18-2-.75-3.39-2-3.39-3.88a3.8,3.8,0,0,1,3.93-3.55A6.56,6.56,0,0,1,290.46,43a6.71,6.71,0,0,1,0-2c.71-4.05,5.76-7.39,16.2-7.39C312.21,33.56,316.39,34.43,318.85,35.65Zm1.71,23.42c0-1.55-1.46-1.59-11.27-1.84-4-.08-9.48,0-11.94-.13-1.21.17-2.13.71-2.13,1.76,0,1.25,2,2.46,11.81,2.46C318.27,61.32,320.52,60.4,320.56,59.07Zm-23.84-17a4.7,4.7,0,0,0,0,1c.25,2.38,3.67,3.67,10.23,3.67,7.31,0,10.06-1.38,10.4-3.71a6.32,6.32,0,0,0-.05-1.26c-.41-2.08-3.29-3.46-10.23-3.46C300.4,38.36,297.1,39.65,296.72,42.07Z" class="cls-1"/><path data-cppathid="10008" d="M359.8,57.48a16.06,16.06,0,0,1-.38-2.63c-1.5,1.54-6.55,3.13-15.19,3.13-9.32,0-14.49-2.09-14.49-6.76v-.63c0-5,5-7.51,18.12-7.56,3.21,0,8.76.34,11.64.63a4.19,4.19,0,0,0-.66-2.42c-1-1.34-4-2.46-10.48-2.46-5.89,0-8.81.71-10,1.87a2.5,2.5,0,0,0-.54,1.38h-6.39a7.09,7.09,0,0,1,.38-1.79c1.46-4,6.59-6.47,16.24-6.47,10.89,0,15.78,2.42,17,7.55a24,24,0,0,1,.37,4.85c0,.83-.08,3.88-.08,5.76a18.27,18.27,0,0,0,.71,5.55ZM347.31,47.33c-6.13,0-9,.71-10.27,1.84a2,2,0,0,0-.54,1.38,1.44,1.44,0,0,0,.34,1.08c1,1.13,3.71,1.76,8.22,1.76,8.81,0,14.44-1,14.44-5.55C356.75,47.58,351.78,47.33,347.31,47.33Z" class="cls-1"/><path data-cppathid="10009" d="M402.46,57.48c-.3,0-.46-1.38-.46-11.19,0-4.55-3.09-6.89-9.9-6.89-5.8,0-11.1,2.72-11.1,6.93V57.48h-6.43v-23h6.22v5.3c2.09-4.47,8.18-6,14.07-6,9.93,0,13.61,4.88,13.61,11.35,0,11.65.12,11.86.33,12.32Z" class="cls-1"/><path data-cppathid="10010" d="M418.31,31.39v-6.6H425v6.6ZM419,57.48c-.38-.08-.54-1.13-.54-3.47V34.52H425V54c0,2.59,0,3.18.58,3.51Z" class="cls-1"/><path data-cppathid="10011" d="M450.87,58c-12.31,0-16.78-1.84-18.16-6.43a5.45,5.45,0,0,1-.29-1.54h6.3a2.06,2.06,0,0,0,.46,1.25c1,1.13,4.05,1.75,11.73,1.75,9.73,0,11.11-1.08,11.11-2.5,0-1.59-1.25-1.92-9.69-2.34-1.63-.08-4.55-.29-6.51-.42C436.59,47.21,433,45.08,433,40.9c0-4.59,5.35-7.18,16-7.18s15.58,1.59,17.33,5.89a6.77,6.77,0,0,1,.38,1.84h-6.31a2.41,2.41,0,0,0-.37-.88c-1-1.08-3.84-1.79-10.61-1.79-9.18,0-10.35.87-10.35,2.17s1,1.67,9,2.08c2,.13,5,.3,7,.38,9.72.38,13.06,2.5,13.06,7.06C468.11,55.35,463.44,58,450.87,58Z" class="cls-1"/><path data-cppathid="10012" d="M524,46.33c0-3.76-1.76-6.93-8.94-6.93-5,0-9.31,2.05-9.31,6.93V57.48h-6V45.79c0-3.92-3.5-6.39-8.68-6.39-5.85,0-9.52,3.3-9.52,6.81V57.48h-6.43v-23h6.22v5.3c1.63-3.92,6.89-5.89,11.94-5.89,5.3,0,10,1.76,11.52,6,1.76-3.92,6.06-6,12.19-6,9.4,0,12.61,4.6,12.61,11.23,0,11.73,0,12,.42,12.32h-5.59C524,57.48,524,55,524,46.33Z" class="cls-1"/><path data-cppathid="10013" d="M574.89,51.38c-2.84,4.1-8.94,6.6-18.37,6.6-8.9,0-15.2-2.5-18.16-6.51a10.17,10.17,0,0,1-1.84-5.6,8.81,8.81,0,0,1,1.75-5.38c3-4.09,9.06-6.72,18.25-6.72,9.51,0,15.36,2.92,18.2,6.59a9.19,9.19,0,0,1,.17,11Zm-6.27-8.81c-2.08-2-6.26-3.46-12.1-3.46s-9.77,1.34-12.15,3.51a4.77,4.77,0,0,0,0,6.59c1.92,2.13,6.3,3.59,12.11,3.59,6.13,0,10.18-1.33,12.23-3.63a5,5,0,0,0,1.33-3.26A4.31,4.31,0,0,0,568.62,42.57Z" class="cls-1"/><path data-cppathid="10014" d="M599.09,58c-12.32,0-16.78-1.84-18.16-6.43a5.45,5.45,0,0,1-.29-1.54h6.3a2.06,2.06,0,0,0,.46,1.25c1,1.13,4.05,1.75,11.73,1.75,9.73,0,11.11-1.08,11.11-2.5,0-1.59-1.26-1.92-9.69-2.34-1.63-.08-4.55-.29-6.51-.42-9.23-.54-12.82-2.67-12.82-6.85,0-4.59,5.35-7.18,16-7.18s15.57,1.59,17.33,5.89a6.67,6.67,0,0,1,.37,1.84h-6.3a2.46,2.46,0,0,0-.38-.88c-1-1.08-3.84-1.79-10.6-1.79-9.18,0-10.35.87-10.35,2.17s1,1.67,9,2.08c2,.13,5,.3,7,.38,9.72.38,13.06,2.5,13.06,7.06C616.33,55.35,611.66,58,599.09,58Z" class="cls-1"/></svg>