<?xml version="1.0" encoding="UTF-8"?>
<svg xmlns="http://www.w3.org/2000/svg" onmouseup="{ if(window.parent.document.onmouseup) window.parent.document.onmouseup(arguments[0]);}" viewBox="0 0 932.57 96.69" data-name="Capa 1" id="Capa_1"><defs><style>.cls-1{fill:#fff;}</style></defs><path data-cppathid="10000" d="M34.83,14.63h6.68c-.58,9.52-16.95,5.85-17.37,11.74v.7c.34,3.05,3.55,4.64,11.48,4.64,7,0,10-1.76,10.82-4.18A10,10,0,0,0,46.73,26h7.05A16.66,16.66,0,0,1,53,29.66c-1.5,3.76-6.1,7.77-17.66,7.77-13.86,0-18.83-3.17-19-9.35V27C16.67,17,33.49,20.85,34.83,14.63ZM41.89,4v8.1H34.54V4Z" class="cls-1"/><path data-cppathid="10001" d="M91.47,38.76a16,16,0,0,0,4.68,1.13l-3.3,5.22a23.33,23.33,0,0,1-7.3-2.46,26.82,26.82,0,0,1-6.43-5l-2.22-.13a25.06,25.06,0,0,1-14.69-5.3c-3.76-3.13-5.51-6.51-5.51-11.4A13.88,13.88,0,0,1,61.37,10c4.26-4.18,11-6,19.67-6s14.9,1.84,19.49,5.76c3.59,3,4.8,6.64,4.8,11.15A14.73,14.73,0,0,1,100.58,32a23.34,23.34,0,0,1-12.53,5.09A15.12,15.12,0,0,0,91.47,38.76Zm4.18-11A8.71,8.71,0,0,0,98.53,21a8.44,8.44,0,0,0-3.09-6.89C92.27,11.42,88,10,81,10c-6.64,0-11.78,1.5-14.49,4.09a8.86,8.86,0,0,0-3,6.89,8.35,8.35,0,0,0,3.76,7.43C70.64,30.92,74.94,32,81,32,87.76,32,92.39,30.83,95.65,27.74Z" class="cls-1"/><path data-cppathid="10002" d="M146.2,37.34h-6.27l-.16-4.13c-3,3.88-8.77,4.72-14.2,4.72-8.39,0-13.48-2.51-13.48-9.81,0-13.24-.17-13.4-.42-13.74h6.64c.21,0,.25,5.64.25,11.57,0,5,2.46,6.55,9.6,6.55,6.85,0,11.4-2.84,11.4-6.68V14.38h6.51V32.71C146.07,36,146.2,37.22,146.2,37.34Z" class="cls-1"/><path data-cppathid="10003" d="M190.44,32.71c-2.55,2.63-7.89,5.18-17.45,5.18-8.77,0-15.15-1.92-18-6.27a10.68,10.68,0,0,1-1.76-6.05,9.78,9.78,0,0,1,1.8-5.63c3-4.05,9.52-6.35,17.91-6.35,10.31,0,17.24,3.59,18.87,10a22.28,22.28,0,0,1,.58,4.38H159.67a4.12,4.12,0,0,0,1.88,2.38c2,1.71,5.89,2.8,11.82,2.8a25.83,25.83,0,0,0,9.47-1.46,7,7,0,0,0,2-1.51h7.09A7.06,7.06,0,0,1,190.44,32.71ZM184.51,21.4c-1.54-1.63-5.59-2.93-11.73-2.93-5.84,0-10.48,1.26-12.11,3.14a3.76,3.76,0,0,0-1,2.17h26.18A3.37,3.37,0,0,0,184.51,21.4ZM174.87,4.91h6.76l-6.39,7.22h-6Z" class="cls-1"/><path data-cppathid="10004" d="M232.76,37.85c-12.31,0-16.78-1.84-18.16-6.43a5.45,5.45,0,0,1-.29-1.55h6.3a2,2,0,0,0,.46,1.25c1,1.13,4.05,1.76,11.73,1.76,9.73,0,11.11-1.09,11.11-2.51,0-1.58-1.25-1.92-9.69-2.33-1.63-.09-4.55-.3-6.51-.42-9.23-.55-12.82-2.67-12.82-6.85,0-4.59,5.35-7.18,16-7.18s15.58,1.59,17.33,5.89a6.78,6.78,0,0,1,.38,1.83h-6.31a2.56,2.56,0,0,0-.37-.87c-1-1.09-3.84-1.8-10.61-1.8-9.18,0-10.35.88-10.35,2.17s1,1.67,9,2.09c2,.13,5,.29,7,.38,9.72.37,13.06,2.5,13.06,7C250,35.22,245.33,37.85,232.76,37.85Z" class="cls-1"/><path data-cppathid="10005" d="M291.66,32.71c-2.55,2.63-7.89,5.18-17.45,5.18-8.77,0-15.15-1.92-18-6.27a10.74,10.74,0,0,1-1.75-6.05,9.78,9.78,0,0,1,1.8-5.63c3-4.05,9.51-6.35,17.91-6.35,10.31,0,17.24,3.59,18.87,10a22.28,22.28,0,0,1,.58,4.38H260.89a4.12,4.12,0,0,0,1.88,2.38c2,1.71,5.89,2.8,11.82,2.8a25.83,25.83,0,0,0,9.47-1.46,7,7,0,0,0,2-1.51h7.09A7.06,7.06,0,0,1,291.66,32.71ZM285.73,21.4c-1.54-1.63-5.59-2.93-11.73-2.93-5.84,0-10.48,1.26-12.11,3.14a3.76,3.76,0,0,0-1,2.17h26.18A3.37,3.37,0,0,0,285.73,21.4Z" class="cls-1"/><path data-cppathid="10006" d="M346.46,37.34c-.29,0-.45-1.37-.45-11.18,0-4.55-3.09-6.89-9.9-6.89-5.8,0-11.1,2.71-11.1,6.93V37.34h-6.43v-23h6.22v5.31c2.08-4.47,8.18-6,14.07-6,9.93,0,13.61,4.89,13.61,11.36,0,11.65.12,11.86.33,12.31Z" class="cls-1"/><path data-cppathid="10007" d="M396.51,32.71c-2.54,2.63-7.89,5.18-17.45,5.18-8.77,0-15.15-1.92-18-6.27a10.68,10.68,0,0,1-1.76-6.05,9.78,9.78,0,0,1,1.8-5.63c3-4.05,9.52-6.35,17.91-6.35,10.31,0,17.24,3.59,18.87,10a22.28,22.28,0,0,1,.58,4.38H365.74a4.12,4.12,0,0,0,1.88,2.38c2,1.71,5.89,2.8,11.82,2.8a25.83,25.83,0,0,0,9.47-1.46,7,7,0,0,0,2-1.51H398A6.92,6.92,0,0,1,396.51,32.71ZM390.58,21.4c-1.54-1.63-5.59-2.93-11.73-2.93-5.84,0-10.48,1.26-12.1,3.14a3.71,3.71,0,0,0-1,2.17h26.18A3.37,3.37,0,0,0,390.58,21.4Z" class="cls-1"/><path data-cppathid="10008" d="M434.16,23.57c-.79-3-4.72-4.59-12.19-4.59-5.93,0-10.23,1.25-12.32,3.67a5,5,0,0,0-1.12,3.26,5.17,5.17,0,0,0,1.17,3.29c1.87,2.34,6.51,3.47,12.31,3.47s9-.84,10.65-2.17a5.9,5.9,0,0,0,1.46-1.84h6.51a9.41,9.41,0,0,1-1.92,4.09c-2.71,3.09-7.93,5.1-16.74,5.1-9.14,0-15.28-2.26-18-5.89A10,10,0,0,1,402,25.78a9.46,9.46,0,0,1,2-6c3-3.8,9.22-6.18,18-6.18,9,0,14.49,2.26,17,6a10.06,10.06,0,0,1,1.51,3.93Z" class="cls-1"/><path data-cppathid="10009" d="M482.37,32.71c-2.55,2.63-7.89,5.18-17.45,5.18-8.77,0-15.15-1.92-18-6.27a10.68,10.68,0,0,1-1.76-6.05,9.78,9.78,0,0,1,1.8-5.63c3-4.05,9.52-6.35,17.91-6.35,10.31,0,17.24,3.59,18.87,10a22.28,22.28,0,0,1,.58,4.38H451.6a4.12,4.12,0,0,0,1.88,2.38c2,1.71,5.89,2.8,11.82,2.8a25.83,25.83,0,0,0,9.47-1.46,7,7,0,0,0,2-1.51h7.09A7.06,7.06,0,0,1,482.37,32.71ZM476.44,21.4c-1.54-1.63-5.59-2.93-11.73-2.93-5.84,0-10.48,1.26-12.1,3.14a3.71,3.71,0,0,0-1,2.17h26.18A3.37,3.37,0,0,0,476.44,21.4Z" class="cls-1"/><path data-cppathid="10010" d="M506,37.85c-12.31,0-16.78-1.84-18.16-6.43a5.45,5.45,0,0,1-.29-1.55h6.3a2,2,0,0,0,.46,1.25c1,1.13,4.05,1.76,11.73,1.76,9.73,0,11.11-1.09,11.11-2.51,0-1.58-1.25-1.92-9.69-2.33-1.62-.09-4.55-.3-6.51-.42-9.23-.55-12.82-2.67-12.82-6.85,0-4.59,5.35-7.18,16-7.18s15.57,1.59,17.32,5.89a6.78,6.78,0,0,1,.38,1.83h-6.31a2.38,2.38,0,0,0-.37-.87c-1-1.09-3.84-1.8-10.61-1.8-9.18,0-10.35.88-10.35,2.17s1,1.67,9,2.09c2,.13,5,.29,7,.38,9.72.37,13.06,2.5,13.06,7C523.23,35.22,518.56,37.85,506,37.85Z" class="cls-1"/><path data-cppathid="10011" d="M530.7,11.25V4.66h6.72v6.59Zm.67,26.09c-.38-.08-.55-1.12-.55-3.46V14.38h6.52V33.84c0,2.59,0,3.17.58,3.5Z" class="cls-1"/><path data-cppathid="10012" d="M556.66,20v8.39c0,3.05,1.34,4.18,5,4.18a43.69,43.69,0,0,0,6-.51V37a34.39,34.39,0,0,1-8,.84c-5.6,0-9.44-1.8-9.44-8.1V20h-7.05v-5.3h7.05c.17-1.55.17-5.89.17-5.89l6.22-.17v6.06h11.36V20Z" class="cls-1"/><path data-cppathid="10013" d="M602.29,37.34a16.06,16.06,0,0,1-.38-2.63c-1.5,1.55-6.55,3.14-15.19,3.14-9.31,0-14.49-2.09-14.49-6.77v-.62c0-5,5-7.52,18.12-7.56,3.21,0,8.76.33,11.65.63a4.26,4.26,0,0,0-.67-2.43c-1.05-1.33-4.05-2.46-10.48-2.46-5.89,0-8.81.71-10,1.88a2.5,2.5,0,0,0-.54,1.38h-6.39a7.16,7.16,0,0,1,.38-1.8c1.46-4,6.59-6.47,16.24-6.47,10.89,0,15.78,2.42,17,7.56a23.23,23.23,0,0,1,.37,4.84c0,.84-.08,3.88-.08,5.76a18.17,18.17,0,0,0,.71,5.55ZM589.81,27.2c-6.14,0-9,.71-10.28,1.84a2,2,0,0,0-.54,1.37,1.45,1.45,0,0,0,.34,1.09c1,1.13,3.71,1.75,8.22,1.75,8.81,0,14.45-1,14.45-5.55C599.24,27.45,594.27,27.2,589.81,27.2Z" class="cls-1"/><path data-cppathid="10014" d="M636.63,37.34c-.25-.08-.41-.91-.41-2.33V7.58A16.38,16.38,0,0,0,636,4.32h6.43a20.56,20.56,0,0,1,.17,3.13V34.67c0,1.21.08,2.51.5,2.67Z" class="cls-1"/><path data-cppathid="10015" d="M653.25,11.25V4.66H660v6.59Zm.67,26.09c-.38-.08-.55-1.12-.55-3.46V14.38h6.52V33.84c0,2.59,0,3.17.58,3.5Z" class="cls-1"/><path data-cppathid="10016" d="M719.25,26.2c0-3.76-1.76-6.93-8.94-6.93-5,0-9.31,2-9.31,6.93V37.34h-6V25.66c0-3.93-3.5-6.39-8.68-6.39-5.84,0-9.52,3.3-9.52,6.8V37.34H670.4v-23h6.22v5.31c1.63-3.93,6.89-5.89,11.94-5.89,5.3,0,10,1.75,11.53,6,1.75-3.93,6-6,12.19-6,9.39,0,12.6,4.59,12.6,11.23,0,11.73,0,12,.42,12.31h-5.59C719.25,37.34,719.25,34.88,719.25,26.2Z" class="cls-1"/><path data-cppathid="10017" d="M770.29,32.21c-2.92,3.51-8.35,5.51-15.28,5.51-5.17,0-11.85-1.25-14.11-4V45.11h-6.43V14.42h6.22v3.89c1.76-2.42,7.52-4.55,14.37-4.55,7.76,0,12.81,2.08,15.4,5.51a10.63,10.63,0,0,1,2.17,6.51A10,10,0,0,1,770.29,32.21Zm-6-10.19c-2-2-5.8-3-10.93-3s-9.4,1.21-11.28,3.46A5.18,5.18,0,0,0,740.69,26a4.82,4.82,0,0,0,1.34,3.3c1.8,2,5.84,3.21,11.36,3.21,5.3,0,9.22-1.17,11.23-3.21A5.22,5.22,0,0,0,766,25.7,5,5,0,0,0,764.32,22Z" class="cls-1"/><path data-cppathid="10018" d="M780,11.25V4.66h6.72v6.59Zm.67,26.09c-.38-.08-.54-1.12-.54-3.46V14.38h6.51V33.84c0,2.59,0,3.17.58,3.5Z" class="cls-1"/><path data-cppathid="10019" d="M824.64,37.34a16.06,16.06,0,0,1-.38-2.63c-1.5,1.55-6.55,3.14-15.19,3.14-9.31,0-14.49-2.09-14.49-6.77v-.62c0-5,5-7.52,18.12-7.56,3.21,0,8.76.33,11.65.63a4.26,4.26,0,0,0-.67-2.43c-1-1.33-4-2.46-10.48-2.46-5.89,0-8.81.71-10,1.88a2.5,2.5,0,0,0-.54,1.38h-6.39a7.16,7.16,0,0,1,.38-1.8c1.46-4,6.59-6.47,16.24-6.47,10.89,0,15.78,2.42,17,7.56a23.23,23.23,0,0,1,.37,4.84c0,.84-.08,3.88-.08,5.76a18.17,18.17,0,0,0,.71,5.55ZM812.15,27.2c-6.13,0-9,.71-10.27,1.84a2,2,0,0,0-.54,1.37,1.45,1.45,0,0,0,.34,1.09c1,1.13,3.71,1.75,8.22,1.75,8.81,0,14.45-1,14.45-5.55C821.59,27.45,816.62,27.2,812.15,27.2Z" class="cls-1"/><path data-cppathid="10020" d="M864.21,20.56a38.53,38.53,0,0,0-7.35-.67c-5.64,0-11,3.05-11,9.15v8.3h-6.47v-23h6.26v5.89c1.13-3.21,5.55-5.8,11.06-6.14a34,34,0,0,1,7.48.21Z" class="cls-1"/><path data-cppathid="10021" d="M33.79,95.2H26.31l5.76-7.81L15,64.47h6.93L35.58,82.21,48.44,64.47h6.8Z" class="cls-1"/><path data-cppathid="10022" d="M109,68.19V54.54h6.35V84.68a22.79,22.79,0,0,0,.25,2.75H109.3l-.17-4.26c-2,3.09-7.93,4.72-14,4.72-8.43,0-13.86-2.09-16.4-5.8A10.41,10.41,0,0,1,76.78,76a10.9,10.9,0,0,1,1.87-6.3c2.51-3.8,7.69-6,15.7-6C101.11,63.72,106.62,65.1,109,68.19ZM84.5,72.4A5.4,5.4,0,0,0,83.25,76a5.14,5.14,0,0,0,1.25,3.51c2,2.25,6.09,3.34,12.11,3.34s10-1.17,11.6-3.68a5.37,5.37,0,0,0,.88-3.17,5.16,5.16,0,0,0-1.3-3.59c-2-2.17-5.92-3.3-11.73-3.3S86.25,70.23,84.5,72.4Z" class="cls-1"/><path data-cppathid="10023" d="M159.43,82.8C156.88,85.43,151.54,88,142,88c-8.77,0-15.16-1.92-18-6.27a10.74,10.74,0,0,1-1.75-6A9.91,9.91,0,0,1,124,70c3-4,9.52-6.34,17.91-6.34,10.32,0,17.25,3.59,18.87,10a21.47,21.47,0,0,1,.59,4.38H128.66a4.12,4.12,0,0,0,1.88,2.38c2,1.71,5.88,2.8,11.81,2.8a26.12,26.12,0,0,0,9.48-1.46,6.83,6.83,0,0,0,2-1.51h7.1A7.14,7.14,0,0,1,159.43,82.8ZM153.5,71.49c-1.55-1.63-5.59-2.93-11.73-2.93-5.85,0-10.48,1.26-12.11,3.13a3.69,3.69,0,0,0-1,2.18h26.18A3.45,3.45,0,0,0,153.5,71.49Z" class="cls-1"/><path data-cppathid="10024" d="M183.05,87.93c-12.32,0-16.78-1.83-18.16-6.43A5.33,5.33,0,0,1,164.6,80h6.3a2,2,0,0,0,.46,1.25c1,1.13,4,1.76,11.73,1.76,9.73,0,11.11-1.09,11.11-2.51,0-1.59-1.26-1.92-9.69-2.34-1.63-.08-4.55-.29-6.51-.41-9.23-.55-12.82-2.68-12.82-6.85,0-4.59,5.34-7.18,16-7.18s15.57,1.58,17.33,5.88a6.74,6.74,0,0,1,.37,1.84h-6.3a2.42,2.42,0,0,0-.38-.87c-1-1.09-3.84-1.8-10.6-1.8-9.19,0-10.35.88-10.35,2.17s1,1.67,9,2.09c2,.12,5,.29,7,.37,9.73.38,13.07,2.51,13.07,7.06C200.29,85.3,195.61,87.93,183.05,87.93Z" class="cls-1"/><path data-cppathid="10025" d="M207.76,61.34v-6.6h6.72v6.6Zm.66,26.09c-.37-.08-.54-1.12-.54-3.46V64.47h6.51V83.93c0,2.58.05,3.17.59,3.5Z" class="cls-1"/><path data-cppathid="10026" d="M252.8,87.43c-.29,0-.46-1.37-.46-11.19,0-4.55-3.09-6.88-9.9-6.88-5.8,0-11.1,2.71-11.1,6.93V87.43h-6.43v-23h6.22v5.3c2.09-4.46,8.18-6,14.07-6,9.94,0,13.61,4.89,13.61,11.36,0,11.65.13,11.85.33,12.31Z" class="cls-1"/><path data-cppathid="10027" d="M277.88,70.11V87.43h-6.47V70.11h-7.22v-5.3h7.22V62.72c0-5,3.17-8.73,11.11-8.73,2,0,6.55.17,7.64.34v5.38a64.07,64.07,0,0,0-7.06-.37c-4.22,0-5.34,1.5-5.34,3.75v1.72h12.48v5.3Z" class="cls-1"/><path data-cppathid="10028" d="M330,82.8c-2.55,2.63-7.89,5.18-17.45,5.18-8.77,0-15.16-1.92-18-6.27a10.74,10.74,0,0,1-1.75-6,9.84,9.84,0,0,1,1.8-5.64c3-4,9.51-6.34,17.91-6.34,10.31,0,17.24,3.59,18.87,10a22.18,22.18,0,0,1,.58,4.38H299.25a4.12,4.12,0,0,0,1.88,2.38c2,1.71,5.89,2.8,11.81,2.8a26.08,26.08,0,0,0,9.48-1.46,7,7,0,0,0,2-1.51h7.09A7.14,7.14,0,0,1,330,82.8Zm-5.93-11.31c-1.54-1.63-5.59-2.93-11.73-2.93-5.84,0-10.48,1.26-12.11,3.13a3.81,3.81,0,0,0-1,2.18h26.18A3.37,3.37,0,0,0,324.09,71.49Z" class="cls-1"/><path data-cppathid="10029" d="M367.67,73.66c-.8-3-4.72-4.6-12.19-4.6-5.93,0-10.23,1.26-12.32,3.68A5,5,0,0,0,342,76a5.17,5.17,0,0,0,1.17,3.3c1.88,2.34,6.52,3.47,12.32,3.47s9-.84,10.65-2.17a6,6,0,0,0,1.46-1.84h6.51a9.41,9.41,0,0,1-1.92,4.09c-2.71,3.09-7.93,5.09-16.74,5.09-9.15,0-15.28-2.25-18-5.88a10,10,0,0,1-1.92-6.18,9.51,9.51,0,0,1,2-6c3-3.8,9.23-6.18,18-6.18,9,0,14.48,2.25,17,6a9.89,9.89,0,0,1,1.5,3.93Z" class="cls-1"/><path data-cppathid="10030" d="M390.08,70.11V78.5c0,3,1.33,4.17,5,4.17a43.9,43.9,0,0,0,6.05-.5V87.1a34.67,34.67,0,0,1-8.06.83c-5.59,0-9.43-1.79-9.43-8.1V70.11h-7.06v-5.3h7.06c.17-1.55.17-5.89.17-5.89l6.22-.17v6.06h11.35v5.3Z" class="cls-1"/><path data-cppathid="10031" d="M435.7,87.43a16.34,16.34,0,0,1-.37-2.63c-1.51,1.55-6.56,3.13-15.2,3.13-9.31,0-14.48-2.08-14.48-6.76v-.63c0-5,5-7.51,18.11-7.55,3.22,0,8.77.33,11.65.62a4.13,4.13,0,0,0-.67-2.42c-1-1.33-4.05-2.46-10.48-2.46-5.88,0-8.8.71-10,1.88a2.49,2.49,0,0,0-.55,1.38h-6.38a7.59,7.59,0,0,1,.37-1.8c1.46-4,6.6-6.47,16.24-6.47,10.9,0,15.78,2.42,17,7.56a23.81,23.81,0,0,1,.38,4.84c0,.83-.08,3.88-.08,5.76a18.17,18.17,0,0,0,.71,5.55ZM423.22,77.29c-6.14,0-9,.71-10.27,1.83a2,2,0,0,0-.54,1.38,1.48,1.48,0,0,0,.33,1.09c1,1.13,3.72,1.75,8.23,1.75,8.81,0,14.44-1,14.44-5.55C432.66,77.54,427.69,77.29,423.22,77.29Z" class="cls-1"/><path data-cppathid="10032" d="M475.27,70.65a38.42,38.42,0,0,0-7.34-.67c-5.64,0-11,3-11,9.14v8.31h-6.48v-23h6.27v5.89c1.12-3.22,5.55-5.8,11.06-6.14a33.91,33.91,0,0,1,7.47.21Z" class="cls-1"/><path data-cppathid="10033" d="M497.06,76.75H490.3c.66-9.94,17-6.31,17.4-11.69a1.61,1.61,0,0,0,0-.71c-.29-3-3.46-4.47-11.39-4.47-7.06,0-10.06,1.75-10.86,4.13a7.76,7.76,0,0,0-.25,1.63h-7.09a16.85,16.85,0,0,1,.83-3.72c1.5-3.75,6.14-7.76,17.7-7.76,13.86,0,18.79,3.17,19,9.31V64.6C515.22,74.57,497.73,70.73,497.06,76.75ZM490,87.43v-8.1h7.39v8.1Z" class="cls-1"/></svg>