<?xml version="1.0" encoding="UTF-8"?>
<svg xmlns="http://www.w3.org/2000/svg" onmouseup="{ if(window.parent.document.onmouseup) window.parent.document.onmouseup(arguments[0]);}" viewBox="0 0 683.56 96.69" data-name="Capa 1" id="Capa_1"><defs><style>.cls-1{fill:#fff;}</style></defs><path data-cppathid="10000" d="M66.6,63.13c-9.85,0-15.9-1-19.54-3.42a10.66,10.66,0,0,1-4.76-7.89h7.48a4.71,4.71,0,0,0,1.88,3.3c2,1.37,5.88,2.08,14.19,2.08C76.66,57.2,79.5,55.57,79.5,53S77.37,49.65,68,49c-1.75-.17-6.18-.42-7.68-.54C47.15,47.52,43,44.64,43,39.17c0-5.14,6.18-9.69,21.05-9.69,11.31,0,17.11,3,19.83,6.68a11,11,0,0,1,1.79,4.05h-7.6a4.85,4.85,0,0,0-.87-1.88c-1.38-1.79-4.6-2.92-13.74-2.92C53,35.41,50,36.62,50,39.13,50,41.38,52.45,42,63.1,42.8c2,.12,7,.54,8.6.67,11.18.87,15,3.92,15,9.22C86.68,59.5,80.3,63.13,66.6,63.13Z" class="cls-1"/><path data-cppathid="10001" d="M95.4,36.54v-6.6h6.72v6.6Zm.67,26.09c-.38-.08-.55-1.13-.55-3.47V39.67H102V59.12c0,2.59,0,3.18.58,3.51Z" class="cls-1"/><path data-cppathid="10002" d="M121.36,45.3v8.4c0,3,1.34,4.17,5,4.17a43.77,43.77,0,0,0,6-.5V62.3a35.14,35.14,0,0,1-8,.83c-5.6,0-9.44-1.79-9.44-8.1V45.3h-7V40h7c.17-1.54.17-5.88.17-5.88l6.22-.17v6h11.35v5.3Z" class="cls-1"/><path data-cppathid="10003" d="M139.89,36.54v-6.6h6.72v6.6Zm.67,26.09c-.37-.08-.54-1.13-.54-3.47V39.67h6.51V59.12c0,2.59,0,3.18.59,3.51Z" class="cls-1"/><path data-cppathid="10004" d="M192.7,56.53c-2.84,4.1-8.93,6.6-18.37,6.6-8.89,0-15.19-2.5-18.16-6.51a10.14,10.14,0,0,1-1.84-5.6,8.84,8.84,0,0,1,1.76-5.38c3-4.09,9.06-6.72,18.24-6.72,9.52,0,15.37,2.92,18.2,6.59a9.19,9.19,0,0,1,.17,11Zm-6.26-8.8c-2.09-2-6.26-3.47-12.11-3.47s-9.77,1.34-12.15,3.51a4.8,4.8,0,0,0,0,6.59c1.93,2.13,6.31,3.59,12.11,3.59,6.14,0,10.19-1.33,12.23-3.63a5,5,0,0,0,1.34-3.25A4.32,4.32,0,0,0,186.44,47.73Z" class="cls-1"/><path data-cppathid="10005" d="M216.91,63.13c-12.32,0-16.79-1.84-18.16-6.43a5.49,5.49,0,0,1-.3-1.54h6.31a2,2,0,0,0,.46,1.25c1,1.13,4.05,1.75,11.73,1.75,9.73,0,11.1-1.08,11.1-2.5,0-1.59-1.25-1.92-9.68-2.34-1.63-.08-4.55-.29-6.52-.42-9.22-.54-12.81-2.67-12.81-6.84,0-4.6,5.34-7.19,16-7.19s15.57,1.59,17.32,5.89a6.4,6.4,0,0,1,.38,1.84h-6.3a2.65,2.65,0,0,0-.38-.88c-1-1.08-3.84-1.79-10.6-1.79-9.19,0-10.36.87-10.36,2.17s1,1.67,9,2.08c2,.13,5,.3,7,.38,9.73.38,13.07,2.51,13.07,7.06C234.15,60.5,229.47,63.13,216.91,63.13Z" class="cls-1"/><path data-cppathid="10006" d="M289.37,43.38V29.73h6.34V59.87a22,22,0,0,0,.26,2.76H289.7l-.16-4.26c-2,3.09-7.94,4.72-14,4.72-8.43,0-13.86-2.09-16.41-5.8a10.51,10.51,0,0,1-1.92-6.1,10.91,10.91,0,0,1,1.88-6.3c2.51-3.8,7.68-6,15.7-6C281.52,38.92,287,40.29,289.37,43.38ZM264.91,47.6a5.39,5.39,0,0,0-1.26,3.55,5.14,5.14,0,0,0,1.26,3.51C266.87,56.91,271,58,277,58s10-1.17,11.61-3.68a5.46,5.46,0,0,0,.87-3.17,5.13,5.13,0,0,0-1.29-3.59c-2-2.17-5.93-3.3-11.73-3.3S266.66,45.43,264.91,47.6Z" class="cls-1"/><path data-cppathid="10007" d="M339.83,58c-2.54,2.63-7.89,5.17-17.45,5.17-8.76,0-15.15-1.92-18-6.26a10.68,10.68,0,0,1-1.75-6,9.83,9.83,0,0,1,1.79-5.64c3-4,9.52-6.35,17.91-6.35,10.31,0,17.24,3.6,18.87,10a22.38,22.38,0,0,1,.58,4.39H309.07a4.06,4.06,0,0,0,1.87,2.38c2,1.71,5.89,2.79,11.82,2.79A25.94,25.94,0,0,0,332.24,57a6.77,6.77,0,0,0,2-1.5h7.1A7.27,7.27,0,0,1,339.83,58Zm-5.92-11.32c-1.55-1.63-5.6-2.92-11.74-2.92-5.84,0-10.47,1.25-12.1,3.13a3.66,3.66,0,0,0-1,2.17h26.17A3.43,3.43,0,0,0,333.91,46.68Z" class="cls-1"/><path data-cppathid="10008" d="M391.55,45.85a38.53,38.53,0,0,0-7.35-.67c-5.64,0-11,3-11,9.14v8.31h-6.47v-23H373v5.88c1.13-3.21,5.55-5.8,11.07-6.13a33.91,33.91,0,0,1,7.47.21Z" class="cls-1"/><path data-cppathid="10009" d="M431.08,58c-2.55,2.63-7.89,5.17-17.45,5.17-8.77,0-15.16-1.92-18-6.26a10.76,10.76,0,0,1-1.75-6,9.91,9.91,0,0,1,1.79-5.64c3-4,9.52-6.35,17.91-6.35,10.32,0,17.25,3.6,18.87,10a21.67,21.67,0,0,1,.59,4.39H400.31a4.12,4.12,0,0,0,1.88,2.38c2,1.71,5.89,2.79,11.81,2.79A25.86,25.86,0,0,0,423.48,57a6.64,6.64,0,0,0,2-1.5h7.1A7.23,7.23,0,0,1,431.08,58Zm-5.93-11.32c-1.54-1.63-5.59-2.92-11.73-2.92-5.85,0-10.48,1.25-12.11,3.13a3.72,3.72,0,0,0-1,2.17h26.18A3.49,3.49,0,0,0,425.15,46.68Z" class="cls-1"/><path data-cppathid="10010" d="M449.19,45.3V62.63h-6.47V45.3H435.5V40h7.22V37.91c0-5,3.17-8.72,11.1-8.72,2,0,6.56.17,7.64.33v5.39a60.71,60.71,0,0,0-7-.38c-4.22,0-5.35,1.51-5.35,3.76V40h12.49v5.3Z" class="cls-1"/><path data-cppathid="10011" d="M500.66,62.63H494.4l-.17-4.13c-3,3.88-8.77,4.71-14.19,4.71-8.4,0-13.49-2.5-13.49-9.81,0-13.23-.17-13.4-.42-13.73h6.64c.21,0,.25,5.63.25,11.56,0,5,2.46,6.56,9.6,6.56,6.85,0,11.4-2.84,11.4-6.68V39.67h6.51V58C500.53,61.25,500.66,62.5,500.66,62.63Z" class="cls-1"/><path data-cppathid="10012" d="M535.89,40.8c1.83-1.55,6.93-1.84,9.22-1.47V43.8c-2.54,0-5.42.17-6.18.63a5.37,5.37,0,0,1,1.72,2.84,7.33,7.33,0,0,1-.13,2.67c-.92,3.84-5,6.39-15.57,6.39A37.54,37.54,0,0,1,514.8,55a1.31,1.31,0,0,0-1.17,1.3c0,1,.88,1.58,13.07,1.58,13.53,0,17.58,1.46,17.58,5.89,0,5-6.43,7.39-19.79,7.39-14.24,0-18.45-2.76-18.45-6,0-2.55,2.92-3.8,5.38-4.18-2-.75-3.38-2-3.38-3.88A3.8,3.8,0,0,1,512,53.57a6.56,6.56,0,0,1-4.46-5.47,6.11,6.11,0,0,1,0-2c.71-4.05,5.76-7.39,16.2-7.39C529.25,38.71,533.42,39.58,535.89,40.8Zm1.71,23.42c0-1.55-1.46-1.59-11.27-1.84-4-.08-9.48,0-11.94-.13-1.21.17-2.13.71-2.13,1.76,0,1.25,2,2.46,11.81,2.46C535.3,66.47,537.56,65.55,537.6,64.22Zm-23.84-17a4.7,4.7,0,0,0,0,1.05c.25,2.38,3.67,3.67,10.23,3.67,7.3,0,10.06-1.38,10.39-3.71a7,7,0,0,0,0-1.26c-.42-2.08-3.3-3.46-10.23-3.46C517.43,43.51,514.14,44.8,513.76,47.22Z" class="cls-1"/><path data-cppathid="10013" d="M550.24,36.54v-6.6H557v6.6Zm.67,26.09c-.38-.08-.55-1.13-.55-3.47V39.67h6.52V59.12c0,2.59,0,3.18.58,3.51Z" class="cls-1"/><path data-cppathid="10014" d="M603.05,56.53c-2.84,4.1-8.94,6.6-18.37,6.6-8.89,0-15.2-2.5-18.16-6.51a10.14,10.14,0,0,1-1.84-5.6,8.83,8.83,0,0,1,1.75-5.38c3-4.09,9.06-6.72,18.25-6.72,9.52,0,15.36,2.92,18.2,6.59a9.19,9.19,0,0,1,.17,11Zm-6.26-8.8c-2.09-2-6.27-3.47-12.11-3.47s-9.77,1.34-12.15,3.51a4.8,4.8,0,0,0,0,6.59c1.92,2.13,6.31,3.59,12.11,3.59,6.14,0,10.18-1.33,12.23-3.63a5,5,0,0,0,1.34-3.25A4.32,4.32,0,0,0,596.79,47.73Z" class="cls-1"/></svg>