<?xml version="1.0" encoding="UTF-8"?>
<svg xmlns="http://www.w3.org/2000/svg" onmouseup="{ if(window.parent.document.onmouseup) window.parent.document.onmouseup(arguments[0]);}" viewBox="0 0 767 91" data-name="Capa 1" id="Capa_1"><defs><style>.cls-1{fill:#fff;}</style></defs><path data-cppathid="10000" d="M32,57.1h-7.3L46.4,24.5h7.68l21.2,32.6H67.73l-4.89-7.26H37ZM52,32.81,50,29.59l-2,3.22L40.42,44h19Z" class="cls-1"/><path data-cppathid="10001" d="M106.5,35.27c1.84-1.54,6.93-1.84,9.23-1.46v4.47c-2.55,0-5.43.16-6.18.62a5.4,5.4,0,0,1,1.71,2.84,7.11,7.11,0,0,1-.12,2.67c-.92,3.84-5.06,6.39-15.58,6.39a37.61,37.61,0,0,1-10.14-1.29,1.29,1.29,0,0,0-1.17,1.29c0,1,.88,1.59,13.07,1.59,13.52,0,17.57,1.46,17.57,5.88,0,5.06-6.43,7.39-19.79,7.39-14.23,0-18.45-2.75-18.45-6,0-2.55,2.92-3.8,5.39-4.17-2-.76-3.38-2-3.38-3.89A3.81,3.81,0,0,1,82.58,48a6.56,6.56,0,0,1-4.47-5.46,6.46,6.46,0,0,1,0-2c.71-4,5.76-7.39,16.19-7.39C99.86,33.18,104,34.06,106.5,35.27Zm1.71,23.42c0-1.54-1.46-1.59-11.27-1.84-4-.08-9.47,0-11.94-.12-1.21.17-2.13.71-2.13,1.75,0,1.25,2,2.47,11.82,2.47C105.92,61,108.17,60,108.21,58.69Zm-23.83-17a4.14,4.14,0,0,0,0,1c.25,2.38,3.68,3.68,10.23,3.68,7.31,0,10.06-1.38,10.4-3.72a6.94,6.94,0,0,0,0-1.25c-.42-2.09-3.3-3.47-10.23-3.47C88.05,38,84.75,39.28,84.38,41.7Z" class="cls-1"/><path data-cppathid="10002" d="M154.8,52.47c-2.55,2.63-7.89,5.18-17.45,5.18-8.77,0-15.16-1.92-18-6.27a10.74,10.74,0,0,1-1.75-6.05,9.85,9.85,0,0,1,1.79-5.63c3-4.05,9.52-6.35,17.91-6.35,10.31,0,17.25,3.59,18.87,10a21.57,21.57,0,0,1,.59,4.38H124a4.12,4.12,0,0,0,1.88,2.38c2,1.71,5.88,2.8,11.81,2.8a25.9,25.9,0,0,0,9.48-1.46,6.83,6.83,0,0,0,2-1.51h7.1A7.06,7.06,0,0,1,154.8,52.47Zm-5.93-11.31c-1.55-1.63-5.6-2.93-11.73-2.93-5.85,0-10.48,1.26-12.11,3.14a3.64,3.64,0,0,0-1,2.17h26.18A3.47,3.47,0,0,0,148.87,41.16Z" class="cls-1"/><path data-cppathid="10003" d="M190.9,57.1c-.29,0-.46-1.37-.46-11.18,0-4.55-3.09-6.89-9.89-6.89-5.81,0-11.11,2.71-11.11,6.93V57.1H163v-23h6.22v5.31c2.09-4.47,8.19-6,14.07-6,9.94,0,13.61,4.89,13.61,11.36,0,11.65.13,11.86.34,12.31Z" class="cls-1"/><path data-cppathid="10004" d="M215.15,39.78v8.39c0,3,1.33,4.18,5,4.18a43.83,43.83,0,0,0,6-.51v4.93a34.56,34.56,0,0,1-8.06.84c-5.59,0-9.43-1.8-9.43-8.1V39.78h-7.06v-5.3h7.06c.16-1.55.16-5.89.16-5.89l6.22-.17v6.06h11.36v5.3Z" class="cls-1"/><path data-cppathid="10005" d="M267.87,52.47c-2.55,2.63-7.89,5.18-17.45,5.18-8.77,0-15.15-1.92-18-6.27a10.68,10.68,0,0,1-1.76-6.05,9.78,9.78,0,0,1,1.8-5.63c3-4.05,9.52-6.35,17.91-6.35,10.31,0,17.24,3.59,18.87,10a22.28,22.28,0,0,1,.58,4.38H237.1A4.12,4.12,0,0,0,239,50.09c2,1.71,5.89,2.8,11.82,2.8a25.83,25.83,0,0,0,9.47-1.46,7,7,0,0,0,2-1.51h7.09A7.06,7.06,0,0,1,267.87,52.47Zm-5.93-11.31c-1.54-1.63-5.59-2.93-11.73-2.93-5.84,0-10.48,1.26-12.11,3.14a3.76,3.76,0,0,0-1,2.17h26.18A3.39,3.39,0,0,0,261.94,41.16Z" class="cls-1"/><path data-cppathid="10006" d="M291.49,57.61c-12.31,0-16.78-1.84-18.16-6.43a5.45,5.45,0,0,1-.29-1.55h6.3a2,2,0,0,0,.46,1.25c1,1.13,4.05,1.76,11.73,1.76,9.73,0,11.11-1.09,11.11-2.51,0-1.58-1.25-1.92-9.69-2.34-1.62-.08-4.55-.29-6.51-.41-9.23-.55-12.82-2.67-12.82-6.85,0-4.59,5.35-7.18,16-7.18s15.57,1.59,17.32,5.89a6.78,6.78,0,0,1,.38,1.83h-6.31a2.38,2.38,0,0,0-.37-.87c-1-1.09-3.84-1.8-10.61-1.8-9.18,0-10.35.88-10.35,2.17s1,1.67,9,2.09c2,.13,5,.29,7,.38,9.72.37,13.06,2.5,13.06,7.05C308.73,55,304.06,57.61,291.49,57.61Z" class="cls-1"/><path data-cppathid="10007" d="M364,37.86V24.21h6.34V54.35a22.55,22.55,0,0,0,.25,2.75h-6.26l-.17-4.25c-2,3.09-7.93,4.71-14,4.71-8.44,0-13.87-2.08-16.41-5.8a10.48,10.48,0,0,1-1.92-6.09,10.94,10.94,0,0,1,1.88-6.31c2.5-3.8,7.68-6,15.69-6C356.11,33.39,361.62,34.77,364,37.86Zm-24.47,4.22a5.43,5.43,0,0,0-1.25,3.54,5.19,5.19,0,0,0,1.25,3.51c2,2.25,6.1,3.34,12.11,3.34s10-1.17,11.6-3.67a5.43,5.43,0,0,0,.88-3.18A5.21,5.21,0,0,0,362.79,42c-2-2.17-5.93-3.29-11.73-3.29S341.24,39.9,339.49,42.08Z" class="cls-1"/><path data-cppathid="10008" d="M414.42,52.47c-2.55,2.63-7.89,5.18-17.45,5.18-8.77,0-15.16-1.92-18-6.27a10.74,10.74,0,0,1-1.75-6.05A9.78,9.78,0,0,1,379,39.7c3-4.05,9.51-6.35,17.91-6.35,10.31,0,17.24,3.59,18.87,10a22.28,22.28,0,0,1,.58,4.38H383.65a4.12,4.12,0,0,0,1.88,2.38c2,1.71,5.89,2.8,11.82,2.8a25.83,25.83,0,0,0,9.47-1.46,7,7,0,0,0,2-1.51h7.09A7.06,7.06,0,0,1,414.42,52.47Zm-5.93-11.31c-1.54-1.63-5.59-2.93-11.73-2.93-5.84,0-10.48,1.26-12.11,3.14a3.76,3.76,0,0,0-1,2.17h26.18A3.39,3.39,0,0,0,408.49,41.16Z" class="cls-1"/><path data-cppathid="10009" d="M442.21,57.1c-.25-.08-.41-.91-.41-2.33V27.34a16.38,16.38,0,0,0-.21-3.26H448a20.75,20.75,0,0,1,.16,3.13V54.43c0,1.21.09,2.51.5,2.67Z" class="cls-1"/><path data-cppathid="10010" d="M458.83,31V24.42h6.72V31Zm.66,26.09C459.12,57,459,56,459,53.64V34.14h6.51V53.6c0,2.59.05,3.17.59,3.5Z" class="cls-1"/><path data-cppathid="10011" d="M524.83,46c0-3.76-1.76-6.93-8.94-6.93-5,0-9.31,2-9.31,6.93V57.1h-6V45.42c0-3.93-3.51-6.39-8.68-6.39-5.85,0-9.52,3.3-9.52,6.8V57.1H476v-23h6.22v5.31c1.63-3.93,6.89-5.89,11.94-5.89,5.3,0,10,1.75,11.52,6,1.76-3.93,6.06-6,12.19-6,9.4,0,12.61,4.59,12.61,11.23,0,11.73,0,12,.42,12.31h-5.6C524.83,57.1,524.83,54.64,524.83,46Z" class="cls-1"/><path data-cppathid="10012" d="M575.87,52c-2.92,3.51-8.35,5.51-15.28,5.51-5.18,0-11.86-1.25-14.11-4V64.87h-6.43V34.18h6.22v3.89c1.75-2.42,7.52-4.55,14.36-4.55,7.77,0,12.82,2.08,15.41,5.51a10.63,10.63,0,0,1,2.17,6.51A10.07,10.07,0,0,1,575.87,52Zm-6-10.19c-2-2-5.8-3-10.94-3S549.57,40,547.69,42.2a5.18,5.18,0,0,0-1.42,3.59,4.82,4.82,0,0,0,1.34,3.3c1.79,2,5.84,3.21,11.35,3.21,5.31,0,9.23-1.17,11.23-3.21a5.23,5.23,0,0,0,1.38-3.63A5,5,0,0,0,569.9,41.78Z" class="cls-1"/><path data-cppathid="10013" d="M585.55,31V24.42h6.72V31Zm.67,26.09c-.38-.08-.55-1.12-.55-3.46V34.14h6.52V53.6c0,2.59,0,3.17.58,3.5Z" class="cls-1"/><path data-cppathid="10014" d="M637.31,52.47c-2.54,2.63-7.89,5.18-17.45,5.18-8.76,0-15.15-1.92-18-6.27a10.68,10.68,0,0,1-1.76-6.05,9.78,9.78,0,0,1,1.8-5.63c3-4.05,9.52-6.35,17.91-6.35,10.31,0,17.24,3.59,18.87,10a22.28,22.28,0,0,1,.58,4.38H606.54a4.12,4.12,0,0,0,1.88,2.38c2,1.71,5.89,2.8,11.82,2.8a25.83,25.83,0,0,0,9.47-1.46,7,7,0,0,0,2-1.51h7.1A7.1,7.1,0,0,1,637.31,52.47Zm-5.93-11.31c-1.54-1.63-5.59-2.93-11.73-2.93-5.84,0-10.48,1.26-12.1,3.14a3.71,3.71,0,0,0-1,2.17h26.18A3.39,3.39,0,0,0,631.38,41.16Z" class="cls-1"/><path data-cppathid="10015" d="M643,57.1V52.26l21-12.52h-20.5V34.48h31.36V39l-21.5,12.86h22.71V57.1Z" class="cls-1"/><path data-cppathid="10016" d="M710.4,57.1a16.06,16.06,0,0,1-.38-2.63c-1.5,1.55-6.55,3.14-15.2,3.14-9.3,0-14.48-2.09-14.48-6.77v-.62c0-5,5-7.52,18.12-7.56,3.21,0,8.76.33,11.64.63a4.24,4.24,0,0,0-.66-2.43c-1.05-1.33-4.05-2.46-10.48-2.46-5.89,0-8.81.71-10,1.88a2.5,2.5,0,0,0-.54,1.38h-6.39a7.16,7.16,0,0,1,.38-1.8c1.46-4,6.59-6.47,16.24-6.47,10.89,0,15.78,2.42,17,7.56a23.93,23.93,0,0,1,.37,4.84c0,.84-.08,3.88-.08,5.76a18.17,18.17,0,0,0,.71,5.55ZM697.91,47c-6.13,0-9,.71-10.27,1.84a2,2,0,0,0-.54,1.37,1.45,1.45,0,0,0,.34,1.09c1,1.13,3.71,1.75,8.22,1.75,8.81,0,14.44-1,14.44-5.55C707.35,47.21,702.38,47,697.91,47Z" class="cls-1"/></svg>