<?xml version="1.0" encoding="UTF-8"?>
<svg xmlns="http://www.w3.org/2000/svg" onmouseup="{ if(window.parent.document.onmouseup) window.parent.document.onmouseup(arguments[0]);}" viewBox="0 0 898.46 96" data-name="Capa 1" id="Capa_1"><defs><style>.cls-1{fill:#fff;}</style></defs><path data-cppathid="10000" d="M51.29,59.53H27.16V26.93h24c9.69,0,15.12,3,17.5,8.1a19.22,19.22,0,0,1,1.5,7.85A20.87,20.87,0,0,1,68.7,51C66.32,56.36,60.81,59.53,51.29,59.53Zm12-16.36a12.57,12.57,0,0,0-1.05-5.3c-1.67-3.39-5.42-5.14-11.89-5.14H33.92v21H49.87c6.84,0,10.68-1.71,12.4-5A12.71,12.71,0,0,0,63.27,43.17Z" class="cls-1"/><path data-cppathid="10001" d="M112.19,54.9c-2.55,2.63-7.89,5.18-17.45,5.18-8.77,0-15.16-1.93-18-6.27A10.74,10.74,0,0,1,75,47.76a9.91,9.91,0,0,1,1.79-5.64c3-4,9.52-6.34,17.91-6.34,10.31,0,17.24,3.59,18.87,10a21.47,21.47,0,0,1,.59,4.38H81.42a4.12,4.12,0,0,0,1.88,2.38c2,1.71,5.88,2.8,11.81,2.8a25.9,25.9,0,0,0,9.48-1.46,6.83,6.83,0,0,0,2-1.51h7.1A7.14,7.14,0,0,1,112.19,54.9Zm-5.93-11.32c-1.55-1.62-5.6-2.92-11.73-2.92-5.85,0-10.48,1.25-12.11,3.13a3.69,3.69,0,0,0-1,2.17h26.17A3.43,3.43,0,0,0,106.26,43.58Z" class="cls-1"/><path data-cppathid="10002" d="M135.81,60C123.49,60,119,58.2,117.65,53.6a5.33,5.33,0,0,1-.29-1.54h6.3a2,2,0,0,0,.46,1.25c1,1.13,4,1.76,11.73,1.76,9.73,0,11.1-1.09,11.1-2.51,0-1.59-1.25-1.92-9.68-2.34-1.63-.08-4.55-.29-6.51-.41-9.23-.55-12.82-2.68-12.82-6.85,0-4.59,5.34-7.18,16-7.18s15.57,1.58,17.33,5.88a6.74,6.74,0,0,1,.37,1.84h-6.3a2.53,2.53,0,0,0-.38-.88c-1-1.08-3.84-1.79-10.6-1.79-9.19,0-10.36.88-10.36,2.17s1,1.67,9,2.09c2,.12,5,.29,7,.37,9.73.38,13.07,2.51,13.07,7.06C153.05,57.4,148.37,60,135.81,60Z" class="cls-1"/><path data-cppathid="10003" d="M160.52,33.44v-6.6h6.72v6.6Zm.66,26.09c-.37-.08-.54-1.12-.54-3.46V36.57h6.51V56c0,2.58,0,3.17.59,3.5Z" class="cls-1"/><path data-cppathid="10004" d="M205.56,59.53c-.29,0-.46-1.38-.46-11.19,0-4.55-3.09-6.88-9.9-6.88-5.8,0-11.1,2.71-11.1,6.93V59.53h-6.43v-23h6.22v5.3c2.09-4.46,8.18-6,14.07-6,9.94,0,13.61,4.89,13.61,11.36,0,11.64.13,11.85.33,12.31Z" class="cls-1"/><path data-cppathid="10005" d="M230.64,42.21V59.53h-6.47V42.21H217V36.9h7.22V34.82c0-5,3.17-8.73,11.1-8.73,2,0,6.56.17,7.64.34v5.38a63.69,63.69,0,0,0-7-.37c-4.22,0-5.34,1.5-5.34,3.75V36.9H243v5.31Z" class="cls-1"/><path data-cppathid="10006" d="M282.78,54.9c-2.55,2.63-7.89,5.18-17.45,5.18-8.77,0-15.16-1.93-18-6.27a10.74,10.74,0,0,1-1.75-6.05,9.91,9.91,0,0,1,1.79-5.64c3-4,9.52-6.34,17.91-6.34,10.32,0,17.25,3.59,18.88,10a22.18,22.18,0,0,1,.58,4.38H252a4.12,4.12,0,0,0,1.88,2.38c2,1.71,5.89,2.8,11.81,2.8a25.86,25.86,0,0,0,9.48-1.46,6.83,6.83,0,0,0,2-1.51h7.1A7.14,7.14,0,0,1,282.78,54.9Zm-5.93-11.32c-1.54-1.62-5.59-2.92-11.73-2.92-5.85,0-10.48,1.25-12.11,3.13A3.75,3.75,0,0,0,252,46h26.18A3.45,3.45,0,0,0,276.85,43.58Z" class="cls-1"/><path data-cppathid="10007" d="M320.43,45.76c-.8-3-4.72-4.6-12.19-4.6-5.93,0-10.23,1.26-12.32,3.68a5,5,0,0,0-1.13,3.25,5.17,5.17,0,0,0,1.17,3.3c1.88,2.34,6.52,3.47,12.32,3.47s9-.84,10.64-2.17a6.05,6.05,0,0,0,1.47-1.84h6.51A9.41,9.41,0,0,1,325,54.94C322.26,58,317.05,60,308.24,60c-9.15,0-15.28-2.25-18-5.88A10,10,0,0,1,288.28,48a9.49,9.49,0,0,1,2-6c3-3.8,9.23-6.18,18-6.18,9,0,14.48,2.25,17,6a9.89,9.89,0,0,1,1.5,3.93Z" class="cls-1"/><path data-cppathid="10008" d="M342.84,42.21V50.6c0,3,1.33,4.17,5,4.17a43.9,43.9,0,0,0,6.05-.5V59.2a34.67,34.67,0,0,1-8.06.83c-5.59,0-9.43-1.79-9.43-8.1V42.21h-7.06V36.9h7.06c.16-1.54.16-5.88.16-5.88l6.22-.17v6h11.36v5.31Z" class="cls-1"/><path data-cppathid="10009" d="M388.46,59.53a16.34,16.34,0,0,1-.37-2.63c-1.51,1.55-6.56,3.13-15.2,3.13-9.31,0-14.49-2.08-14.49-6.76v-.63c0-5,5-7.51,18.12-7.55,3.22,0,8.77.33,11.65.62a4.13,4.13,0,0,0-.67-2.42c-1-1.33-4.05-2.46-10.48-2.46-5.88,0-8.81.71-10,1.88a2.42,2.42,0,0,0-.55,1.38h-6.38a7.13,7.13,0,0,1,.37-1.8c1.46-4,6.6-6.47,16.24-6.47,10.9,0,15.78,2.42,17,7.56a23.81,23.81,0,0,1,.38,4.84c0,.83-.08,3.88-.08,5.76a18.17,18.17,0,0,0,.71,5.55ZM376,49.39c-6.14,0-9,.71-10.27,1.84a1.94,1.94,0,0,0-.54,1.37,1.48,1.48,0,0,0,.33,1.09c1,1.13,3.72,1.75,8.23,1.75,8.8,0,14.44-1,14.44-5.55C385.41,49.64,380.45,49.39,376,49.39Z" class="cls-1"/><path data-cppathid="10010" d="M431.12,59.53c-.29,0-.46-1.38-.46-11.19,0-4.55-3.09-6.88-9.89-6.88-5.81,0-11.11,2.71-11.11,6.93V59.53h-6.43v-23h6.22v5.3c2.09-4.46,8.19-6,14.07-6,9.94,0,13.61,4.89,13.61,11.36,0,11.64.13,11.85.34,12.31Z" class="cls-1"/><path data-cppathid="10011" d="M455.37,42.21V50.6c0,3,1.33,4.17,5,4.17a43.9,43.9,0,0,0,6.05-.5V59.2a34.67,34.67,0,0,1-8.06.83c-5.59,0-9.43-1.79-9.43-8.1V42.21h-7.06V36.9h7.06c.16-1.54.16-5.88.16-5.88l6.22-.17v6h11.36v5.31Z" class="cls-1"/><path data-cppathid="10012" d="M508.09,54.9c-2.55,2.63-7.89,5.18-17.45,5.18-8.77,0-15.15-1.93-18-6.27a10.68,10.68,0,0,1-1.76-6.05,9.84,9.84,0,0,1,1.8-5.64c3-4,9.52-6.34,17.91-6.34,10.31,0,17.24,3.59,18.87,10a22.18,22.18,0,0,1,.58,4.38H477.32a4.12,4.12,0,0,0,1.88,2.38c2,1.71,5.89,2.8,11.82,2.8a25.83,25.83,0,0,0,9.47-1.46,7,7,0,0,0,2-1.51h7.09A7.14,7.14,0,0,1,508.09,54.9Zm-5.93-11.32c-1.54-1.62-5.59-2.92-11.73-2.92-5.84,0-10.48,1.25-12.11,3.13a3.81,3.81,0,0,0-1,2.17H503.5A3.41,3.41,0,0,0,502.16,43.58Z" class="cls-1"/><path data-cppathid="10013" d="M531.71,60c-12.31,0-16.78-1.83-18.16-6.43a5.33,5.33,0,0,1-.29-1.54h6.3a2,2,0,0,0,.46,1.25c1,1.13,4.05,1.76,11.73,1.76,9.73,0,11.11-1.09,11.11-2.51,0-1.59-1.25-1.92-9.69-2.34-1.62-.08-4.55-.29-6.51-.41-9.23-.55-12.82-2.68-12.82-6.85,0-4.59,5.35-7.18,16-7.18s15.57,1.58,17.32,5.88a6.84,6.84,0,0,1,.38,1.84h-6.31a2.48,2.48,0,0,0-.37-.88c-1-1.08-3.84-1.79-10.61-1.79-9.18,0-10.35.88-10.35,2.17s1,1.67,9,2.09c2,.12,5,.29,7,.37C545.61,45.84,549,48,549,52.52,549,57.4,544.28,60,531.71,60Z" class="cls-1"/><path data-cppathid="10014" d="M604.51,67.3l-.21-.21V55.65c-2.88,3.05-8,4.34-14.94,4.34-7.48,0-12.57-1.92-15.2-5.34A10.54,10.54,0,0,1,572,48.14a10.52,10.52,0,0,1,2.25-6.89c2.63-3.22,8.52-5.43,15.53-5.43,7.31,0,12.49,1.59,14.82,4.68,0-.8,0-3.8,0-3.8h5.84V64.29a15.93,15.93,0,0,0,.17,3ZM603,44.42c-2-2.05-6.06-3.26-11.82-3.26-5,0-9.77,1.17-11.48,3.43a5.21,5.21,0,0,0-1.25,3.5,5.31,5.31,0,0,0,1.25,3.55c1.84,2.22,5.84,3.3,11.81,3.3s10.07-1.17,11.86-3.71a5.72,5.72,0,0,0,1-3.22A4.83,4.83,0,0,0,603,44.42Z" class="cls-1"/><path data-cppathid="10015" d="M653.39,59.53h-6.26L647,55.4c-3,3.88-8.77,4.72-14.2,4.72-8.39,0-13.48-2.51-13.48-9.81,0-13.24-.17-13.41-.42-13.74h6.64c.21,0,.25,5.64.25,11.57,0,5,2.46,6.55,9.6,6.55,6.85,0,11.4-2.84,11.4-6.68V36.57h6.51V54.9C653.26,58.15,653.39,59.41,653.39,59.53Z" class="cls-1"/><path data-cppathid="10016" d="M663.82,59.53c-.42-.08-.55-1.12-.55-3.46V36.57h6.47V56c0,2.58,0,3.17.59,3.5Zm5.09-32.44h6.76l-6.38,7.23h-6Z" class="cls-1"/><path data-cppathid="10017" d="M728.81,48.39c0-3.76-1.75-6.93-8.93-6.93-5,0-9.31,2-9.31,6.93V59.53h-6V47.84c0-3.92-3.51-6.38-8.68-6.38-5.85,0-9.52,3.29-9.52,6.8V59.53H680v-23h6.22v5.3C687.82,38,693.08,36,698.13,36c5.3,0,10,1.75,11.52,6,1.76-3.93,6.06-6,12.19-6,9.4,0,12.61,4.59,12.61,11.23,0,11.73,0,12,.42,12.31h-5.6C728.81,59.53,728.81,57.07,728.81,48.39Z" class="cls-1"/><path data-cppathid="10018" d="M744.46,33.44v-6.6h6.72v6.6Zm.67,26.09c-.38-.08-.55-1.12-.55-3.46V36.57h6.52V56c0,2.58,0,3.17.58,3.5Z" class="cls-1"/><path data-cppathid="10019" d="M791.05,45.76c-.8-3-4.72-4.6-12.19-4.6-5.93,0-10.23,1.26-12.32,3.68a5,5,0,0,0-1.13,3.25,5.17,5.17,0,0,0,1.17,3.3c1.88,2.34,6.51,3.47,12.32,3.47s9-.84,10.64-2.17A5.87,5.87,0,0,0,791,50.85h6.52a9.41,9.41,0,0,1-1.92,4.09C792.88,58,787.66,60,778.86,60c-9.15,0-15.28-2.25-18-5.88A10,10,0,0,1,758.9,48a9.49,9.49,0,0,1,2-6c3-3.8,9.23-6.18,18-6.18,9,0,14.48,2.25,17,6a9.89,9.89,0,0,1,1.5,3.93Z" class="cls-1"/><path data-cppathid="10020" d="M840.3,53.44c-2.84,4.09-8.93,6.59-18.37,6.59-8.89,0-15.2-2.5-18.16-6.51a10.14,10.14,0,0,1-1.84-5.59,8.87,8.87,0,0,1,1.76-5.39c3-4.09,9.06-6.72,18.24-6.72,9.52,0,15.36,2.92,18.2,6.6a9.19,9.19,0,0,1,.17,11ZM834,44.63c-2.09-2.05-6.26-3.47-12.11-3.47s-9.77,1.34-12.15,3.51a4.81,4.81,0,0,0,0,6.6c1.92,2.13,6.31,3.59,12.11,3.59,6.14,0,10.19-1.34,12.23-3.63A5,5,0,0,0,835.5,48,4.32,4.32,0,0,0,834,44.63Z" class="cls-1"/><path data-cppathid="10021" d="M864.5,60c-12.31,0-16.78-1.83-18.16-6.43a5.69,5.69,0,0,1-.29-1.54h6.31a2,2,0,0,0,.46,1.25c1,1.13,4,1.76,11.73,1.76,9.72,0,11.1-1.09,11.1-2.51,0-1.59-1.25-1.92-9.68-2.34-1.63-.08-4.55-.29-6.52-.41-9.22-.55-12.81-2.68-12.81-6.85,0-4.59,5.34-7.18,16-7.18s15.57,1.58,17.32,5.88a6.84,6.84,0,0,1,.38,1.84h-6.3a2.74,2.74,0,0,0-.38-.88c-1-1.08-3.84-1.79-10.6-1.79-9.19,0-10.36.88-10.36,2.17s1,1.67,9,2.09c2,.12,5,.29,7,.37,9.73.38,13.07,2.51,13.07,7.06C881.75,57.4,877.07,60,864.5,60Z" class="cls-1"/></svg>