<?xml version="1.0" encoding="UTF-8"?>
<svg xmlns="http://www.w3.org/2000/svg" onmouseup="{ if(window.parent.document.onmouseup) window.parent.document.onmouseup(arguments[0]);}" xml:space="preserve" style="enable-background:new 0 0 275.8 29.5;" viewBox="0 0 275.8 29.5" y="0px" x="0px" id="Capa_1" version="1.1" xmlns:xlink="http://www.w3.org/1999/xlink"><style type="text/css">
	.st0{fill:none;stroke:#FFFFFF;stroke-width:0.25;}
</style><g><path data-cppathid="10000" d="M35.1,17.5c-1.8,2.5-5.1,3.7-10,3.7c-0.7,0-15.8,0-15.8,0v7.1H3.8V2.1h21.3c4.9,0,8.1,1.1,9.7,3.2   c1.1,1.4,1.8,3.5,1.8,6.4C36.7,14.1,36.1,16.1,35.1,17.5z M30.6,8.9c-0.8-1.3-2.9-2.1-6.4-2.1H9.2v9.4h14.9c3.7,0,5.6-0.7,6.5-2   c0.4-0.7,0.5-1.6,0.5-2.6C31.1,10.5,31,9.5,30.6,8.9z" class="st0"/><path data-cppathid="10001" d="M42.1,28.3h-5.9L53.6,2.1h6.2l17,26.2h-6.1l-3.9-5.8H46.1L42.1,28.3z M58.1,8.8l-1.5-2.6L55,8.8l-6.1,9h15.3   L58.1,8.8z" class="st0"/><path data-cppathid="10002" d="M112.9,13.8c-0.9,1.4-2.7,2.9-5.3,3.2l9.6,11.3h-6.3l-9.1-10.6H87v10.6h-5.4V2.1h21.9c4.5,0,7.5,1.2,9.1,3   c0.9,1.1,1.4,2.5,1.4,4.4C113.9,11.2,113.6,12.7,112.9,13.8z M108,8.3c-0.8-0.9-2-1.4-4.7-1.4H87v6.1h17c2.4,0,3.5-0.4,4.1-1.3   c0.4-0.6,0.5-1.2,0.5-1.7C108.6,9.3,108.4,8.7,108,8.3z" class="st0"/><path data-cppathid="10003" d="M138.3,7v21.3h-5.5V7h-14.7V2.1H153V7H138.3z" class="st0"/><path data-cppathid="10004" d="M157.9,28.3V2.1h30.7V7h-25.3v5.8H188v4.7h-24.7v5.9h25.6v4.9H157.9z" class="st0"/><path data-cppathid="10005" d="M243.8,6.1c2.8,2.5,3.9,5.3,3.9,8.9c0,3.7-1.3,6.7-3.8,8.9c-3.3,3.2-8.8,4.7-15.8,4.7   c-6.6,0-11.6-1.6-15.1-4.5c-2.8-2.2-4.4-5.2-4.4-9.2c0-3.4,1.1-6.3,3.8-8.7c3.8-3.6,8.7-4.9,15.7-4.9C235.2,1.5,240.2,3,243.8,6.1z    M239.8,20.5c1.7-1.5,2.3-3.4,2.3-5.4c0-2-0.6-4.1-2.4-5.5c-2.5-2.1-6-3.3-11.5-3.3c-5.3,0-9.4,1.2-11.5,3.3   c-1.7,1.5-2.4,3.4-2.4,5.5c0,2.4,0.9,4.3,3,5.8c2.7,2,6.1,3,11,3C233.5,23.9,237.2,22.9,239.8,20.5z" class="st0"/><path data-cppathid="10006" d="M262.5,28.3V8.1l-10.2,1.7V5.1c10.1-1.8,10.9-2.1,11.3-3.3h4.4v26.4H262.5z" class="st0"/></g></svg>