<?xml version="1.0" encoding="UTF-8"?>
<svg xmlns="http://www.w3.org/2000/svg" onmouseup="{ if(window.parent.document.onmouseup) window.parent.document.onmouseup(arguments[0]);}" viewBox="0 0 987.1 96.69" data-name="Capa 1" id="Capa_1"><defs><style>.cls-1{fill:#fff;}</style></defs><path data-cppathid="10000" d="M71.45,30.71c-3,5.51-9.65,8.81-21.71,8.81s-19.12-3.64-22.3-8.65a15.7,15.7,0,0,1-2.25-8.22,14.38,14.38,0,0,1,1.92-7.56c3.3-5.38,10.1-9.39,22.25-9.39s18.33,3.55,21.88,9.1a12.56,12.56,0,0,1,1.67,4.59H65.69a6.51,6.51,0,0,0-1.59-2.71c-2.21-2.42-7.14-4.63-14.78-4.63-8.1,0-14,2.38-16.24,6.55a8.59,8.59,0,0,0-.88,4A7.87,7.87,0,0,0,33.33,27c2.76,4.43,9.69,6.35,16,6.35,7.39,0,12.28-1.09,15.36-4.76A6.35,6.35,0,0,0,65.89,26H73A17.36,17.36,0,0,1,71.45,30.71Z" class="cls-1"/><path data-cppathid="10001" d="M115.69,32.92c-2.84,4.09-8.94,6.6-18.37,6.6-8.89,0-15.2-2.51-18.16-6.52a10.14,10.14,0,0,1-1.84-5.59A8.81,8.81,0,0,1,79.08,22c3-4.09,9.06-6.72,18.24-6.72,9.52,0,15.36,2.92,18.2,6.6a9.19,9.19,0,0,1,.17,11Zm-6.26-8.81c-2.09-2-6.27-3.46-12.11-3.46S87.55,22,85.17,24.15a4.81,4.81,0,0,0,0,6.6c1.92,2.13,6.31,3.59,12.11,3.59,6.14,0,10.19-1.34,12.23-3.63a5,5,0,0,0,1.34-3.26A4.32,4.32,0,0,0,109.43,24.11Z" class="cls-1"/><path data-cppathid="10002" d="M152.38,39c-.3,0-.46-1.37-.46-11.18,0-4.55-3.09-6.89-9.9-6.89-5.8,0-11.1,2.71-11.1,6.93V39h-6.43v-23h6.22v5.31c2.09-4.47,8.18-6,14.07-6,9.93,0,13.61,4.89,13.61,11.36,0,11.65.12,11.86.33,12.31Z" class="cls-1"/><path data-cppathid="10003" d="M197.25,25.24c-.8-3-4.72-4.59-12.19-4.59-5.93,0-10.23,1.25-12.32,3.67a5,5,0,0,0-1.13,3.26,5.17,5.17,0,0,0,1.17,3.29c1.88,2.34,6.52,3.47,12.32,3.47s9-.84,10.64-2.17a5.79,5.79,0,0,0,1.47-1.84h6.51a9.41,9.41,0,0,1-1.92,4.09c-2.72,3.09-7.93,5.1-16.74,5.1-9.15,0-15.28-2.26-18-5.89a10,10,0,0,1-1.92-6.18,9.51,9.51,0,0,1,2-6c3-3.8,9.23-6.18,18-6.18,9,0,14.48,2.26,17,6a9.89,9.89,0,0,1,1.5,3.93Z" class="cls-1"/><path data-cppathid="10004" d="M245.46,34.38c-2.55,2.63-7.89,5.18-17.45,5.18-8.77,0-15.16-1.92-18-6.26a10.79,10.79,0,0,1-1.75-6.06A9.85,9.85,0,0,1,210,21.61c3-4.05,9.52-6.35,17.91-6.35,10.32,0,17.25,3.59,18.87,10a21.57,21.57,0,0,1,.59,4.38H214.69A4.12,4.12,0,0,0,216.57,32c2,1.71,5.89,2.8,11.81,2.8a25.86,25.86,0,0,0,9.48-1.46,6.66,6.66,0,0,0,2-1.51H247A7.06,7.06,0,0,1,245.46,34.38Zm-5.93-11.31c-1.54-1.63-5.59-2.93-11.73-2.93-5.85,0-10.48,1.26-12.11,3.14a3.7,3.7,0,0,0-1,2.17h26.18A3.43,3.43,0,0,0,239.53,23.07Z" class="cls-1"/><path data-cppathid="10005" d="M289.49,33.88c-2.92,3.51-8.34,5.51-15.28,5.51-5.17,0-11.85-1.25-14.11-4V46.78h-6.43V16.1h6.23V20c1.75-2.42,7.51-4.55,14.36-4.55,7.76,0,12.81,2.08,15.4,5.51a10.63,10.63,0,0,1,2.17,6.51A10,10,0,0,1,289.49,33.88Zm-6-10.19c-2-2-5.8-3-10.93-3s-9.4,1.21-11.27,3.46a5.18,5.18,0,0,0-1.42,3.59,4.81,4.81,0,0,0,1.33,3.3c1.8,2,5.85,3.21,11.36,3.21,5.3,0,9.22-1.16,11.23-3.21a5.22,5.22,0,0,0,1.37-3.63A5,5,0,0,0,283.52,23.69Z" class="cls-1"/><path data-cppathid="10006" d="M307.56,21.69v8.39c0,3.05,1.34,4.18,5,4.18a42.2,42.2,0,0,0,6.05-.51v4.93a34.46,34.46,0,0,1-8.05.84c-5.6,0-9.44-1.8-9.44-8.1V21.69h-7v-5.3h7c.17-1.55.17-5.89.17-5.89l6.22-.17v6.06h11.35v5.3Z" class="cls-1"/><path data-cppathid="10007" d="M361.33,32.92c-2.84,4.09-8.93,6.6-18.37,6.6-8.89,0-15.2-2.51-18.16-6.52A10.14,10.14,0,0,1,323,27.41,8.87,8.87,0,0,1,324.72,22c3-4.09,9-6.72,18.24-6.72,9.52,0,15.36,2.92,18.2,6.6a9.19,9.19,0,0,1,.17,11Zm-6.26-8.81c-2.09-2-6.27-3.46-12.11-3.46s-9.77,1.33-12.15,3.5a4.81,4.81,0,0,0,0,6.6c1.92,2.13,6.31,3.59,12.11,3.59,6.14,0,10.19-1.34,12.23-3.63a5,5,0,0,0,1.34-3.26A4.32,4.32,0,0,0,355.07,24.11Z" class="cls-1"/><path data-cppathid="10008" d="M385.53,39.52c-12.31,0-16.78-1.84-18.16-6.43a5.83,5.83,0,0,1-.29-1.55h6.31a2,2,0,0,0,.46,1.25c1,1.13,4,1.76,11.73,1.76,9.72,0,11.1-1.09,11.1-2.51,0-1.58-1.25-1.92-9.68-2.33-1.63-.09-4.56-.3-6.52-.42-9.22-.55-12.81-2.67-12.81-6.85,0-4.59,5.34-7.18,16-7.18s15.57,1.59,17.32,5.89A6.78,6.78,0,0,1,401.4,23h-6.31a2.38,2.38,0,0,0-.37-.87c-1-1.09-3.84-1.8-10.61-1.8-9.18,0-10.35.88-10.35,2.17s1,1.67,9,2.09c2,.13,5,.29,7,.38,9.73.37,13.07,2.5,13.07,7.05C402.78,36.89,398.1,39.52,385.53,39.52Z" class="cls-1"/><path data-cppathid="10009" d="M465.3,22.11a10.91,10.91,0,0,1,1.26,5.34,10.47,10.47,0,0,1-1.38,5.39c-2.51,4.17-8.14,6.55-15.74,6.55-5.89,0-12-1.42-14.49-4.26V39h-6.43V5.87H435v14c1.92-2.38,6-4.46,14.41-4.46C458.12,15.39,463.17,18.06,465.3,22.11Zm-29.93,2.71a6.17,6.17,0,0,0-.63,2.76,5.08,5.08,0,0,0,.88,2.92c1.55,2.21,5.39,3.71,11.69,3.71,6.09,0,9.85-1.29,11.56-3.42A5.13,5.13,0,0,0,460,27.41,5.1,5.1,0,0,0,458.83,24c-1.92-2.34-6.22-3.43-11.69-3.43C440.34,20.6,436.79,22.4,435.37,24.82Z" class="cls-1"/><path data-cppathid="10010" d="M501.2,39a16.08,16.08,0,0,1-.38-2.62c-1.5,1.54-6.55,3.13-15.19,3.13-9.31,0-14.49-2.09-14.49-6.77v-.62c0-5,5-7.52,18.12-7.56,3.21,0,8.76.33,11.65.63a4.26,4.26,0,0,0-.67-2.43c-1.05-1.33-4.05-2.46-10.48-2.46-5.89,0-8.81.71-10,1.88a2.5,2.5,0,0,0-.54,1.38h-6.39a7.16,7.16,0,0,1,.38-1.8c1.46-4,6.59-6.47,16.24-6.47,10.89,0,15.78,2.42,17,7.56a23.23,23.23,0,0,1,.37,4.84c0,.84-.08,3.88-.08,5.76a18.17,18.17,0,0,0,.71,5.55ZM488.72,28.87c-6.14,0-9,.71-10.28,1.84a2,2,0,0,0-.54,1.37,1.45,1.45,0,0,0,.34,1.09c1,1.13,3.71,1.75,8.22,1.75,8.81,0,14.45-1,14.45-5.55C498.15,29.12,493.18,28.87,488.72,28.87Zm3.13-22.29h6.76l-6.39,7.22h-6Z" class="cls-1"/><path data-cppathid="10011" d="M531.37,39.52c-12.31,0-16.78-1.84-18.16-6.43a5.83,5.83,0,0,1-.29-1.55h6.3a2,2,0,0,0,.46,1.25c1,1.13,4.05,1.76,11.73,1.76,9.73,0,11.11-1.09,11.11-2.51,0-1.58-1.25-1.92-9.69-2.33-1.62-.09-4.55-.3-6.51-.42-9.22-.55-12.82-2.67-12.82-6.85,0-4.59,5.35-7.18,16-7.18s15.57,1.59,17.32,5.89a6.78,6.78,0,0,1,.38,1.83h-6.31a2.38,2.38,0,0,0-.37-.87c-1-1.09-3.84-1.8-10.61-1.8-9.18,0-10.35.88-10.35,2.17s1,1.67,9,2.09c2,.13,5,.29,7,.38,9.72.37,13.06,2.5,13.06,7.05C548.61,36.89,543.94,39.52,531.37,39.52Z" class="cls-1"/><path data-cppathid="10012" d="M556.08,12.92V6.33h6.72v6.59ZM556.75,39c-.38-.08-.54-1.12-.54-3.46V16.05h6.51V35.51c0,2.59,0,3.17.58,3.5Z" class="cls-1"/><path data-cppathid="10013" d="M602.67,25.24c-.8-3-4.72-4.59-12.19-4.59-5.93,0-10.23,1.25-12.32,3.67A5,5,0,0,0,577,27.58a5.17,5.17,0,0,0,1.17,3.29c1.88,2.34,6.52,3.47,12.32,3.47s9-.84,10.64-2.17a5.79,5.79,0,0,0,1.47-1.84h6.51a9.41,9.41,0,0,1-1.92,4.09c-2.72,3.09-7.93,5.1-16.74,5.1-9.15,0-15.28-2.26-18-5.89a10,10,0,0,1-1.92-6.18,9.51,9.51,0,0,1,2-6c3-3.8,9.23-6.18,18-6.18,9,0,14.48,2.26,17,6a9.89,9.89,0,0,1,1.5,3.93Z" class="cls-1"/><path data-cppathid="10014" d="M651.92,32.92c-2.84,4.09-8.93,6.6-18.37,6.6-8.89,0-15.19-2.51-18.16-6.52a10.2,10.2,0,0,1-1.83-5.59A8.86,8.86,0,0,1,615.31,22c3-4.09,9.06-6.72,18.24-6.72,9.52,0,15.37,2.92,18.21,6.6a9.17,9.17,0,0,1,.16,11Zm-6.26-8.81c-2.09-2-6.26-3.46-12.11-3.46s-9.77,1.33-12.15,3.5a4.9,4.9,0,0,0-1.29,3.3,4.82,4.82,0,0,0,1.34,3.3c1.92,2.13,6.3,3.59,12.1,3.59,6.14,0,10.19-1.34,12.24-3.63a5,5,0,0,0,1.33-3.26A4.28,4.28,0,0,0,645.66,24.11Z" class="cls-1"/><path data-cppathid="10015" d="M676.13,39.52c-12.32,0-16.78-1.84-18.16-6.43a5.45,5.45,0,0,1-.29-1.55H664a2,2,0,0,0,.46,1.25c1,1.13,4,1.76,11.73,1.76,9.73,0,11.1-1.09,11.1-2.51,0-1.58-1.25-1.92-9.68-2.33-1.63-.09-4.55-.3-6.51-.42-9.23-.55-12.82-2.67-12.82-6.85,0-4.59,5.34-7.18,16-7.18s15.57,1.59,17.33,5.89A6.68,6.68,0,0,1,692,23h-6.3a2.42,2.42,0,0,0-.38-.87c-1-1.09-3.84-1.8-10.6-1.8-9.19,0-10.35.88-10.35,2.17s1,1.67,9,2.09c2,.13,5,.29,7,.38,9.73.37,13.07,2.5,13.07,7.05C693.37,36.89,688.69,39.52,676.13,39.52Z" class="cls-1"/><path data-cppathid="10016" d="M57,69.86V56.21h6.35V86.35a22.79,22.79,0,0,0,.25,2.75H57.38l-.17-4.25c-2,3.08-7.93,4.71-14,4.71-8.43,0-13.86-2.09-16.4-5.8a10.48,10.48,0,0,1-1.92-6.1,10.9,10.9,0,0,1,1.87-6.3c2.51-3.8,7.69-6,15.7-6C49.19,65.39,54.7,66.77,57,69.86ZM32.58,74.07a5.4,5.4,0,0,0-1.25,3.55,5.14,5.14,0,0,0,1.25,3.51c2,2.25,6.09,3.34,12.11,3.34s10-1.17,11.6-3.67a5.43,5.43,0,0,0,.88-3.18A5.16,5.16,0,0,0,55.87,74c-2-2.17-5.92-3.3-11.73-3.3S34.33,71.9,32.58,74.07Z" class="cls-1"/><path data-cppathid="10017" d="M107.51,84.47c-2.55,2.63-7.89,5.18-17.45,5.18-8.77,0-15.16-1.92-18-6.27a10.74,10.74,0,0,1-1.75-6,9.91,9.91,0,0,1,1.79-5.64c3-4,9.52-6.34,17.91-6.34,10.32,0,17.25,3.59,18.87,10a21.57,21.57,0,0,1,.59,4.38H76.74a4.12,4.12,0,0,0,1.88,2.38c2,1.71,5.88,2.8,11.81,2.8a25.9,25.9,0,0,0,9.48-1.46,6.83,6.83,0,0,0,2-1.51H109A7.14,7.14,0,0,1,107.51,84.47Zm-5.93-11.31C100,71.53,96,70.23,89.85,70.23c-5.85,0-10.48,1.26-12.11,3.13a3.69,3.69,0,0,0-1,2.18h26.18A3.45,3.45,0,0,0,101.58,73.16Z" class="cls-1"/><path data-cppathid="10018" d="M149.83,89.6c-12.32,0-16.78-1.83-18.16-6.42a5.45,5.45,0,0,1-.29-1.55h6.3a2,2,0,0,0,.46,1.25c1,1.13,4.05,1.76,11.73,1.76,9.73,0,11.11-1.09,11.11-2.51,0-1.58-1.26-1.92-9.69-2.34-1.63-.08-4.55-.29-6.51-.41C135.55,78.83,132,76.7,132,72.53c0-4.59,5.34-7.18,16-7.18s15.57,1.58,17.33,5.89a6.62,6.62,0,0,1,.37,1.83h-6.3a2.42,2.42,0,0,0-.38-.87c-1-1.09-3.84-1.8-10.6-1.8-9.18,0-10.35.88-10.35,2.17s1,1.67,9,2.09c2,.12,5,.29,7,.37,9.73.38,13.07,2.51,13.07,7.06C167.07,87,162.4,89.6,149.83,89.6Z" class="cls-1"/><path data-cppathid="10019" d="M201.63,89.1a16.06,16.06,0,0,1-.38-2.63c-1.5,1.55-6.55,3.13-15.19,3.13-9.31,0-14.49-2.08-14.49-6.76v-.62c0-5,5-7.52,18.12-7.56,3.21,0,8.77.33,11.65.62a4.23,4.23,0,0,0-.67-2.42c-1-1.33-4-2.46-10.48-2.46-5.88,0-8.81.71-10,1.88a2.47,2.47,0,0,0-.54,1.38h-6.39a7.16,7.16,0,0,1,.38-1.8c1.46-4,6.6-6.47,16.24-6.47,10.9,0,15.78,2.42,17,7.56a23.81,23.81,0,0,1,.38,4.84c0,.83-.09,3.88-.09,5.76a18.49,18.49,0,0,0,.71,5.55ZM189.15,79c-6.14,0-9,.71-10.27,1.84a1.94,1.94,0,0,0-.54,1.37,1.48,1.48,0,0,0,.33,1.09c1,1.13,3.71,1.75,8.22,1.75,8.81,0,14.45-1,14.45-5.55C198.58,79.21,193.61,79,189.15,79Z" class="cls-1"/><path data-cppathid="10020" d="M244.29,89.1c-.29,0-.46-1.37-.46-11.19,0-4.55-3.09-6.88-9.89-6.88-5.81,0-11.11,2.71-11.11,6.93V89.1H216.4v-23h6.22v5.3c2.09-4.46,8.18-6,14.07-6,9.94,0,13.61,4.89,13.61,11.36,0,11.65.13,11.85.33,12.31Z" class="cls-1"/><path data-cppathid="10021" d="M294.34,84.47c-2.55,2.63-7.89,5.18-17.45,5.18-8.77,0-15.16-1.92-18-6.27a10.74,10.74,0,0,1-1.75-6,9.91,9.91,0,0,1,1.79-5.64c3-4,9.52-6.34,17.91-6.34,10.31,0,17.24,3.59,18.87,10a22.3,22.3,0,0,1,.59,4.38H263.57a4.12,4.12,0,0,0,1.88,2.38c2,1.71,5.88,2.8,11.81,2.8a25.9,25.9,0,0,0,9.48-1.46,7,7,0,0,0,2-1.51h7.1A7.14,7.14,0,0,1,294.34,84.47Zm-5.93-11.31c-1.55-1.63-5.6-2.93-11.73-2.93-5.85,0-10.48,1.26-12.11,3.13a3.69,3.69,0,0,0-1,2.18h26.17A3.4,3.4,0,0,0,288.41,73.16Z" class="cls-1"/><path data-cppathid="10022" d="M330.07,89.1a16.06,16.06,0,0,1-.38-2.63c-1.5,1.55-6.56,3.13-15.2,3.13-9.31,0-14.48-2.08-14.48-6.76v-.62c0-5,5-7.52,18.11-7.56,3.22,0,8.77.33,11.65.62a4.15,4.15,0,0,0-.67-2.42c-1-1.33-4-2.46-10.47-2.46-5.89,0-8.81.71-10,1.88a2.4,2.4,0,0,0-.54,1.38h-6.39a7.59,7.59,0,0,1,.37-1.8c1.46-4,6.6-6.47,16.24-6.47,10.9,0,15.78,2.42,17,7.56a23.11,23.11,0,0,1,.38,4.84c0,.83-.08,3.88-.08,5.76a18.17,18.17,0,0,0,.71,5.55ZM317.58,79c-6.14,0-9,.71-10.27,1.84a2,2,0,0,0-.54,1.37,1.48,1.48,0,0,0,.33,1.09c1,1.13,3.72,1.75,8.23,1.75,8.81,0,14.44-1,14.44-5.55C327,79.21,322.05,79,317.58,79Z" class="cls-1"/><path data-cppathid="10023" d="M393.68,78c0-3.76-1.75-6.93-8.93-6.93-5,0-9.31,2-9.31,6.93V89.1h-6V77.41c0-3.92-3.51-6.38-8.69-6.38-5.84,0-9.52,3.29-9.52,6.8V89.1h-6.43v-23h6.23v5.3c1.62-3.92,6.88-5.88,11.94-5.88,5.3,0,10,1.75,11.52,6,1.75-3.93,6.05-6,12.19-6,9.39,0,12.61,4.59,12.61,11.23,0,11.73,0,12,.41,12.31h-5.59C393.68,89.1,393.68,86.64,393.68,78Z" class="cls-1"/><path data-cppathid="10024" d="M409.32,63v-6.6h6.73V63ZM410,89.1c-.37-.08-.54-1.12-.54-3.46V66.14H416V85.6c0,2.58,0,3.17.59,3.5Z" class="cls-1"/><path data-cppathid="10025" d="M461.09,84.47c-2.55,2.63-7.89,5.18-17.45,5.18-8.77,0-15.16-1.92-18-6.27a10.74,10.74,0,0,1-1.75-6,9.91,9.91,0,0,1,1.79-5.64c3-4,9.52-6.34,17.91-6.34,10.31,0,17.25,3.59,18.87,10a21.57,21.57,0,0,1,.59,4.38H430.32a4.12,4.12,0,0,0,1.88,2.38c2,1.71,5.88,2.8,11.81,2.8a25.86,25.86,0,0,0,9.48-1.46,6.83,6.83,0,0,0,2-1.51h7.1A7.14,7.14,0,0,1,461.09,84.47Zm-5.93-11.31c-1.55-1.63-5.59-2.93-11.73-2.93-5.85,0-10.48,1.26-12.11,3.13a3.69,3.69,0,0,0-1,2.18H456.5A3.45,3.45,0,0,0,455.16,73.16Z" class="cls-1"/><path data-cppathid="10026" d="M497.19,89.1c-.29,0-.46-1.37-.46-11.19,0-4.55-3.09-6.88-9.89-6.88C481,71,475.73,73.74,475.73,78V89.1H469.3v-23h6.22v5.3c2.09-4.46,8.19-6,14.07-6,9.94,0,13.61,4.89,13.61,11.36,0,11.65.13,11.85.34,12.31Z" class="cls-1"/><path data-cppathid="10027" d="M521.44,71.78v8.39c0,3,1.33,4.17,5,4.17a43.9,43.9,0,0,0,6.05-.5v4.93a34.67,34.67,0,0,1-8.06.83c-5.59,0-9.43-1.79-9.43-8.09V71.78h-7.06v-5.3H515c.17-1.55.17-5.89.17-5.89l6.22-.17v6.06h11.35v5.3Z" class="cls-1"/><path data-cppathid="10028" d="M575.2,83c-2.83,4.09-8.93,6.59-18.36,6.59-8.9,0-15.2-2.5-18.16-6.51a10.14,10.14,0,0,1-1.84-5.59,8.86,8.86,0,0,1,1.75-5.39c3-4.09,9.06-6.72,18.25-6.72,9.51,0,15.36,2.92,18.2,6.6a9.17,9.17,0,0,1,.16,11Zm-6.26-8.81c-2.08-2-6.26-3.47-12.1-3.47s-9.77,1.34-12.15,3.51a4.79,4.79,0,0,0,0,6.6c1.92,2.13,6.3,3.59,12.11,3.59,6.13,0,10.18-1.34,12.23-3.63a5,5,0,0,0,1.33-3.26A4.28,4.28,0,0,0,568.94,74.2Z" class="cls-1"/></svg>