<?xml version="1.0" encoding="UTF-8"?>
<svg xmlns="http://www.w3.org/2000/svg" onmouseup="{ if(window.parent.document.onmouseup) window.parent.document.onmouseup(arguments[0]);}" viewBox="0 0 987.1 96.69" data-name="Capa 1" id="Capa_1"><defs><style>.cls-1{fill:#fff;}</style></defs><path data-cppathid="10000" d="M30,39h-7.3L44.44,6.41h7.68L73.32,39H65.77l-4.89-7.26H35ZM50,14.72,48.07,11.5l-2,3.22L38.47,25.86h19Z" class="cls-1"/><path data-cppathid="10001" d="M107.26,25.24c-.8-3-4.72-4.59-12.19-4.59-5.93,0-10.23,1.25-12.32,3.67a5,5,0,0,0-1.13,3.26,5.17,5.17,0,0,0,1.17,3.29c1.88,2.34,6.52,3.47,12.32,3.47s9-.84,10.64-2.17a5.94,5.94,0,0,0,1.47-1.84h6.51a9.41,9.41,0,0,1-1.92,4.09c-2.72,3.09-7.93,5.1-16.74,5.1-9.15,0-15.28-2.26-18-5.89a10,10,0,0,1-1.92-6.18,9.51,9.51,0,0,1,2-6c3-3.8,9.23-6.18,18-6.18,9,0,14.48,2.26,17,6a9.89,9.89,0,0,1,1.5,3.93Z" class="cls-1"/><path data-cppathid="10002" d="M129.67,21.69v8.39c0,3.05,1.33,4.18,5,4.18a42.32,42.32,0,0,0,6.05-.51v4.93a34.56,34.56,0,0,1-8.06.84c-5.59,0-9.43-1.8-9.43-8.1V21.69h-7.06v-5.3h7.06c.16-1.55.16-5.89.16-5.89l6.22-.17v6.06h11.36v5.3Z" class="cls-1"/><path data-cppathid="10003" d="M148.2,12.92V6.33h6.72v6.59ZM148.87,39c-.38-.08-.55-1.12-.55-3.46V16.05h6.52V35.51c0,2.59,0,3.17.58,3.5Z" class="cls-1"/><path data-cppathid="10004" d="M183.6,39H176l-16.41-23h7L179.8,34,193,16.05h6.81Z" class="cls-1"/><path data-cppathid="10005" d="M204.17,12.92V6.33h6.72v6.59ZM204.84,39c-.38-.08-.54-1.12-.54-3.46V16.05h6.51V35.51c0,2.59,0,3.17.58,3.5Z" class="cls-1"/><path data-cppathid="10006" d="M250.8,19.77V6.12h6.35V36.26A22.55,22.55,0,0,0,257.4,39h-6.27L251,34.76c-2,3.09-7.93,4.71-14,4.71-8.43,0-13.86-2.08-16.41-5.8a10.48,10.48,0,0,1-1.92-6.09,10.94,10.94,0,0,1,1.88-6.31c2.51-3.8,7.68-6,15.7-6C243,15.3,248.46,16.68,250.8,19.77ZM226.34,24a5.39,5.39,0,0,0-1.26,3.54A5.14,5.14,0,0,0,226.34,31c2,2.26,6.09,3.34,12.1,3.34s10-1.17,11.61-3.67a5.43,5.43,0,0,0,.88-3.18,5.17,5.17,0,0,0-1.3-3.59c-2-2.17-5.93-3.29-11.73-3.29S228.09,21.81,226.34,24Z" class="cls-1"/><path data-cppathid="10007" d="M294.17,39a16.08,16.08,0,0,1-.38-2.62c-1.5,1.54-6.55,3.13-15.19,3.13-9.31,0-14.49-2.09-14.49-6.77v-.62c0-5,5-7.52,18.12-7.56,3.21,0,8.77.33,11.65.63a4.26,4.26,0,0,0-.67-2.43c-1-1.33-4-2.46-10.48-2.46-5.89,0-8.81.71-10,1.88a2.5,2.5,0,0,0-.54,1.38h-6.39a7.16,7.16,0,0,1,.38-1.8c1.46-4,6.59-6.47,16.24-6.47,10.89,0,15.78,2.42,17,7.56a23.23,23.23,0,0,1,.37,4.84c0,.84-.08,3.88-.08,5.76a18.49,18.49,0,0,0,.71,5.55ZM281.69,28.87c-6.14,0-9,.71-10.27,1.84a2,2,0,0,0-.55,1.37,1.45,1.45,0,0,0,.34,1.09c1,1.13,3.71,1.75,8.22,1.75,8.81,0,14.45-1,14.45-5.55C291.12,29.12,286.15,28.87,281.69,28.87Z" class="cls-1"/><path data-cppathid="10008" d="M338.41,19.77V6.12h6.35V36.26A22.55,22.55,0,0,0,345,39h-6.26l-.17-4.25c-2,3.09-7.93,4.71-14,4.71-8.43,0-13.86-2.08-16.4-5.8a10.48,10.48,0,0,1-1.92-6.09,10.93,10.93,0,0,1,1.87-6.31c2.51-3.8,7.69-6,15.7-6C330.57,15.3,336.08,16.68,338.41,19.77ZM314,24a5.38,5.38,0,0,0-1.25,3.54A5.14,5.14,0,0,0,314,31c2,2.26,6.09,3.34,12.11,3.34s10-1.17,11.6-3.67a5.43,5.43,0,0,0,.88-3.18,5.17,5.17,0,0,0-1.3-3.59c-2-2.17-5.92-3.29-11.73-3.29S315.7,21.81,314,24Z" class="cls-1"/><path data-cppathid="10009" d="M402.44,19.77V6.12h6.35V36.26A22.55,22.55,0,0,0,409,39h-6.26l-.17-4.25c-2,3.09-7.93,4.71-14,4.71-8.43,0-13.86-2.08-16.4-5.8a10.48,10.48,0,0,1-1.92-6.09,10.93,10.93,0,0,1,1.87-6.31c2.51-3.8,7.69-6,15.7-6C394.59,15.3,400.11,16.68,402.44,19.77ZM378,24a5.38,5.38,0,0,0-1.25,3.54A5.14,5.14,0,0,0,378,31c2,2.26,6.09,3.34,12.11,3.34s10-1.17,11.6-3.67a5.43,5.43,0,0,0,.88-3.18,5.17,5.17,0,0,0-1.3-3.59c-2-2.17-5.92-3.29-11.73-3.29S379.73,21.81,378,24Z" class="cls-1"/><path data-cppathid="10010" d="M452.91,34.38c-2.55,2.63-7.89,5.18-17.45,5.18-8.77,0-15.16-1.92-18-6.26a10.79,10.79,0,0,1-1.75-6.06,9.85,9.85,0,0,1,1.79-5.63c3-4.05,9.52-6.35,17.91-6.35,10.32,0,17.25,3.59,18.87,10a21.57,21.57,0,0,1,.59,4.38H422.14A4.12,4.12,0,0,0,424,32c2,1.71,5.88,2.8,11.81,2.8a25.86,25.86,0,0,0,9.48-1.46,6.66,6.66,0,0,0,2-1.51h7.1A7.06,7.06,0,0,1,452.91,34.38ZM447,23.07c-1.54-1.63-5.59-2.93-11.73-2.93-5.85,0-10.48,1.26-12.11,3.14a3.7,3.7,0,0,0-1,2.17h26.18A3.43,3.43,0,0,0,447,23.07Z" class="cls-1"/><path data-cppathid="10011" d="M495.23,39.52c-12.32,0-16.78-1.84-18.16-6.43a5.45,5.45,0,0,1-.29-1.55h6.3a2,2,0,0,0,.46,1.25c1,1.13,4,1.76,11.73,1.76,9.73,0,11.11-1.09,11.11-2.51,0-1.58-1.26-1.92-9.69-2.33-1.63-.09-4.55-.3-6.51-.42-9.23-.55-12.82-2.67-12.82-6.85,0-4.59,5.34-7.18,16-7.18s15.57,1.59,17.33,5.89a6.68,6.68,0,0,1,.37,1.83h-6.3a2.42,2.42,0,0,0-.38-.87c-1-1.09-3.84-1.8-10.6-1.8-9.18,0-10.35.88-10.35,2.17s1,1.67,9,2.09c2,.13,5,.29,7,.38,9.73.37,13.07,2.5,13.07,7.05C512.47,36.89,507.8,39.52,495.23,39.52Z" class="cls-1"/><path data-cppathid="10012" d="M553.21,39H547l-.17-4.13c-3,3.88-8.77,4.72-14.19,4.72-8.4,0-13.49-2.51-13.49-9.81,0-13.24-.17-13.4-.42-13.74h6.64c.21,0,.25,5.64.25,11.57,0,5,2.47,6.55,9.6,6.55,6.85,0,11.4-2.84,11.4-6.68V16.05h6.51V34.38C553.08,37.64,553.21,38.89,553.21,39Z" class="cls-1"/><path data-cppathid="10013" d="M598.66,33.88c-2.92,3.51-8.34,5.51-15.27,5.51-5.18,0-11.86-1.25-14.12-4V46.78h-6.42V16.1h6.22V20c1.75-2.42,7.51-4.55,14.36-4.55,7.76,0,12.81,2.08,15.4,5.51A10.63,10.63,0,0,1,601,27.45,10,10,0,0,1,598.66,33.88Zm-6-10.19c-2-2-5.8-3-10.93-3s-9.4,1.21-11.28,3.46a5.21,5.21,0,0,0-1.41,3.59A4.81,4.81,0,0,0,570.4,31c1.8,2,5.85,3.21,11.36,3.21,5.3,0,9.22-1.16,11.23-3.21a5.22,5.22,0,0,0,1.37-3.63A5,5,0,0,0,592.69,23.69Z" class="cls-1"/><path data-cppathid="10014" d="M642.53,34.38c-2.54,2.63-7.89,5.18-17.45,5.18-8.76,0-15.15-1.92-18-6.26a10.73,10.73,0,0,1-1.76-6.06,9.78,9.78,0,0,1,1.8-5.63c3-4.05,9.52-6.35,17.91-6.35,10.31,0,17.24,3.59,18.87,10a22.28,22.28,0,0,1,.58,4.38H611.77A4.06,4.06,0,0,0,613.64,32c2,1.71,5.89,2.8,11.82,2.8a25.94,25.94,0,0,0,9.48-1.46,6.79,6.79,0,0,0,2-1.51H644A7.1,7.1,0,0,1,642.53,34.38Zm-5.92-11.31c-1.55-1.63-5.6-2.93-11.74-2.93-5.84,0-10.47,1.26-12.1,3.14a3.64,3.64,0,0,0-1,2.17h26.17A3.41,3.41,0,0,0,636.61,23.07Z" class="cls-1"/><path data-cppathid="10015" d="M675.55,22.23a38.53,38.53,0,0,0-7.35-.67c-5.64,0-11,3.05-11,9.15V39h-6.47v-23H657v5.89c1.13-3.21,5.55-5.8,11.06-6.14a34,34,0,0,1,7.48.21Z" class="cls-1"/><path data-cppathid="10016" d="M691.53,21.69V39H685V21.69h-6.6v-5.3H685V14.13c0-5,2.71-8.64,9.93-8.64,2,0,7.43.25,8.27.38v5.22a35,35,0,0,0-5.51-.46c-4.85.08-6.27,1.62-6.27,3.84v1.92h22.47V35.51c0,2.59,0,3.17.58,3.5H707.9c-.42-.08-.59-1.12-.59-3.46V21.69Z" class="cls-1"/><path data-cppathid="10017" d="M753.81,25.24c-.79-3-4.72-4.59-12.19-4.59-5.93,0-10.23,1.25-12.32,3.67a5,5,0,0,0-1.12,3.26,5.17,5.17,0,0,0,1.17,3.29c1.88,2.34,6.51,3.47,12.31,3.47s9-.84,10.65-2.17a5.9,5.9,0,0,0,1.46-1.84h6.51a9.41,9.41,0,0,1-1.92,4.09c-2.71,3.09-7.93,5.1-16.74,5.1-9.14,0-15.28-2.26-18-5.89a10,10,0,0,1-1.92-6.18,9.46,9.46,0,0,1,2-6c3-3.8,9.22-6.18,18-6.18,9,0,14.49,2.26,17,6a10.06,10.06,0,0,1,1.51,3.93Z" class="cls-1"/><path data-cppathid="10018" d="M767.83,12.92V6.33h6.72v6.59ZM768.5,39c-.38-.08-.54-1.12-.54-3.46V16.05h6.51V35.51c0,2.59,0,3.17.58,3.5Z" class="cls-1"/><path data-cppathid="10019" d="M819.59,34.38c-2.54,2.63-7.89,5.18-17.45,5.18-8.76,0-15.15-1.92-18-6.26a10.73,10.73,0,0,1-1.76-6.06,9.78,9.78,0,0,1,1.8-5.63c3-4.05,9.52-6.35,17.91-6.35,10.31,0,17.24,3.59,18.87,10a22.28,22.28,0,0,1,.58,4.38H788.83A4.06,4.06,0,0,0,790.7,32c2,1.71,5.89,2.8,11.82,2.8A25.94,25.94,0,0,0,812,33.34a6.79,6.79,0,0,0,2-1.51h7.1A7.1,7.1,0,0,1,819.59,34.38Zm-5.92-11.31c-1.55-1.63-5.6-2.93-11.74-2.93-5.84,0-10.47,1.26-12.1,3.14a3.64,3.64,0,0,0-1,2.17H815A3.41,3.41,0,0,0,813.67,23.07Z" class="cls-1"/><path data-cppathid="10020" d="M843.22,39.52c-12.32,0-16.79-1.84-18.17-6.43a5.83,5.83,0,0,1-.29-1.55h6.31a2,2,0,0,0,.46,1.25c1,1.13,4,1.76,11.73,1.76,9.72,0,11.1-1.09,11.1-2.51,0-1.58-1.25-1.92-9.68-2.33-1.63-.09-4.55-.3-6.52-.42-9.22-.55-12.81-2.67-12.81-6.85,0-4.59,5.34-7.18,16-7.18S857,16.85,858.7,21.15a6.78,6.78,0,0,1,.38,1.83h-6.31a2.38,2.38,0,0,0-.37-.87c-1-1.09-3.84-1.8-10.6-1.8-9.19,0-10.36.88-10.36,2.17s1,1.67,9,2.09c2,.13,5,.29,7,.38,9.73.37,13.07,2.5,13.07,7.05C860.46,36.89,855.78,39.52,843.22,39.52Z" class="cls-1"/><path data-cppathid="10021" d="M920.81,34.38c-2.54,2.63-7.89,5.18-17.45,5.18-8.77,0-15.15-1.92-18-6.26a10.73,10.73,0,0,1-1.76-6.06,9.78,9.78,0,0,1,1.8-5.63c3-4.05,9.52-6.35,17.91-6.35,10.31,0,17.24,3.59,18.87,10a22.28,22.28,0,0,1,.58,4.38H890A4.12,4.12,0,0,0,891.92,32c2,1.71,5.89,2.8,11.82,2.8a25.83,25.83,0,0,0,9.47-1.46,6.84,6.84,0,0,0,2-1.51h7.1A7.1,7.1,0,0,1,920.81,34.38Zm-5.93-11.31c-1.54-1.63-5.59-2.93-11.73-2.93-5.84,0-10.48,1.26-12.1,3.14a3.71,3.71,0,0,0-1,2.17h26.18A3.39,3.39,0,0,0,914.88,23.07Z" class="cls-1"/><path data-cppathid="10022" d="M956.92,39c-.3,0-.46-1.37-.46-11.18,0-4.55-3.09-6.89-9.9-6.89-5.8,0-11.1,2.71-11.1,6.93V39H929v-23h6.22v5.31c2.09-4.47,8.18-6,14.07-6,9.93,0,13.61,4.89,13.61,11.36,0,11.65.12,11.86.33,12.31Z" class="cls-1"/><path data-cppathid="10023" d="M57,75.33c-.79-3-4.72-4.6-12.19-4.6-5.93,0-10.23,1.26-12.32,3.68a5.08,5.08,0,0,0-1.12,3.25A5.17,5.17,0,0,0,32.54,81c1.88,2.34,6.51,3.47,12.31,3.47s9-.84,10.65-2.17A6,6,0,0,0,57,80.42h6.51a9.3,9.3,0,0,1-1.92,4.09c-2.71,3.09-7.93,5.09-16.74,5.09-9.14,0-15.28-2.25-18-5.88a10,10,0,0,1-1.92-6.18,9.51,9.51,0,0,1,2-6c3-3.8,9.22-6.18,18-6.18,9,0,14.49,2.25,17,6a10.06,10.06,0,0,1,1.51,3.93Z" class="cls-1"/><path data-cppathid="10024" d="M106.26,83c-2.84,4.09-8.94,6.59-18.37,6.59-8.9,0-15.2-2.5-18.16-6.51a10.14,10.14,0,0,1-1.84-5.59,8.86,8.86,0,0,1,1.75-5.39c3-4.09,9.06-6.72,18.25-6.72,9.51,0,15.36,2.92,18.2,6.6a9.19,9.19,0,0,1,.17,11ZM100,74.2c-2.08-2-6.26-3.47-12.1-3.47s-9.77,1.34-12.15,3.51a4.79,4.79,0,0,0,0,6.6c1.92,2.13,6.3,3.59,12.11,3.59,6.13,0,10.18-1.34,12.23-3.63a5,5,0,0,0,1.33-3.26A4.28,4.28,0,0,0,100,74.2Z" class="cls-1"/><path data-cppathid="10025" d="M142.94,89.1c-.29,0-.46-1.37-.46-11.19,0-4.55-3.08-6.88-9.89-6.88-5.8,0-11.11,2.71-11.11,6.93V89.1h-6.42v-23h6.22v5.3c2.08-4.46,8.18-6,14.07-6,9.93,0,13.61,4.89,13.61,11.36,0,11.65.12,11.85.33,12.31Z" class="cls-1"/><path data-cppathid="10026" d="M167.19,71.78v8.39c0,3,1.34,4.17,5,4.17a43.77,43.77,0,0,0,6.05-.5v4.93a34.67,34.67,0,0,1-8.06.83c-5.59,0-9.43-1.79-9.43-8.09V71.78h-7.06v-5.3h7.06c.17-1.55.17-5.89.17-5.89l6.22-.17v6.06h11.35v5.3Z" class="cls-1"/><path data-cppathid="10027" d="M212.82,89.1a16.06,16.06,0,0,1-.38-2.63c-1.5,1.55-6.55,3.13-15.2,3.13-9.3,0-14.48-2.08-14.48-6.76v-.62c0-5,5-7.52,18.12-7.56,3.21,0,8.76.33,11.64.62a4.21,4.21,0,0,0-.66-2.42c-1.05-1.33-4.05-2.46-10.48-2.46-5.89,0-8.81.71-10,1.88a2.47,2.47,0,0,0-.54,1.38h-6.39a7.16,7.16,0,0,1,.38-1.8c1.46-4,6.59-6.47,16.24-6.47,10.89,0,15.78,2.42,17,7.56a23.87,23.87,0,0,1,.37,4.84c0,.83-.08,3.88-.08,5.76a18.17,18.17,0,0,0,.71,5.55ZM200.33,79c-6.13,0-9,.71-10.27,1.84a2,2,0,0,0-.54,1.37,1.45,1.45,0,0,0,.34,1.09c1,1.13,3.71,1.75,8.22,1.75,8.81,0,14.44-1,14.44-5.55C209.77,79.21,204.8,79,200.33,79Z" class="cls-1"/><path data-cppathid="10028" d="M257,75.33c-.79-3-4.72-4.6-12.19-4.6-5.93,0-10.23,1.26-12.32,3.68a5,5,0,0,0-1.12,3.25,5.17,5.17,0,0,0,1.17,3.3c1.87,2.34,6.51,3.47,12.31,3.47s9-.84,10.65-2.17A6,6,0,0,0,257,80.42h6.51a9.41,9.41,0,0,1-1.92,4.09c-2.71,3.09-7.93,5.09-16.74,5.09-9.14,0-15.28-2.25-18-5.88a10,10,0,0,1-1.92-6.18,9.46,9.46,0,0,1,2-6c3-3.8,9.22-6.18,18-6.18,9,0,14.49,2.25,17,6a9.89,9.89,0,0,1,1.5,3.93Z" class="cls-1"/><path data-cppathid="10029" d="M279.43,71.78v8.39c0,3,1.34,4.17,5,4.17a43.9,43.9,0,0,0,6.05-.5v4.93a34.67,34.67,0,0,1-8.06.83c-5.59,0-9.43-1.79-9.43-8.09V71.78H265.9v-5.3H273c.17-1.55.17-5.89.17-5.89l6.22-.17v6.06H290.7v5.3Z" class="cls-1"/><path data-cppathid="10030" d="M333.2,83c-2.84,4.09-8.94,6.59-18.37,6.59-8.89,0-15.2-2.5-18.16-6.51a10.14,10.14,0,0,1-1.84-5.59,8.86,8.86,0,0,1,1.75-5.39c3-4.09,9.06-6.72,18.25-6.72,9.52,0,15.36,2.92,18.2,6.6a9.19,9.19,0,0,1,.17,11Zm-6.27-8.81c-2.08-2-6.26-3.47-12.1-3.47s-9.77,1.34-12.15,3.51a4.79,4.79,0,0,0,0,6.6c1.92,2.13,6.3,3.59,12.11,3.59,6.13,0,10.18-1.34,12.23-3.63a5,5,0,0,0,1.34-3.26A4.29,4.29,0,0,0,326.93,74.2Z" class="cls-1"/><path data-cppathid="10031" d="M390.13,75.33c-.8-3-4.72-4.6-12.19-4.6-5.93,0-10.23,1.26-12.32,3.68a5,5,0,0,0-1.13,3.25,5.17,5.17,0,0,0,1.17,3.3c1.88,2.34,6.52,3.47,12.32,3.47s9-.84,10.65-2.17a6,6,0,0,0,1.46-1.84h6.51a9.41,9.41,0,0,1-1.92,4.09c-2.71,3.09-7.93,5.09-16.74,5.09-9.15,0-15.28-2.25-18-5.88A10,10,0,0,1,358,77.54a9.51,9.51,0,0,1,2-6c3-3.8,9.23-6.18,18-6.18,9,0,14.48,2.25,17,6a9.89,9.89,0,0,1,1.5,3.93Z" class="cls-1"/><path data-cppathid="10032" d="M439.38,83c-2.84,4.09-8.93,6.59-18.37,6.59-8.89,0-15.19-2.5-18.16-6.51A10.2,10.2,0,0,1,401,77.5a8.86,8.86,0,0,1,1.75-5.39c3-4.09,9.06-6.72,18.24-6.72,9.52,0,15.37,2.92,18.21,6.6a9.17,9.17,0,0,1,.16,11Zm-6.26-8.81c-2.09-2-6.26-3.47-12.11-3.47s-9.77,1.34-12.15,3.51a4.88,4.88,0,0,0-1.29,3.3,4.82,4.82,0,0,0,1.34,3.3c1.92,2.13,6.3,3.59,12.1,3.59,6.14,0,10.19-1.34,12.24-3.63a5,5,0,0,0,1.33-3.26A4.28,4.28,0,0,0,433.12,74.2Z" class="cls-1"/><path data-cppathid="10033" d="M476.07,89.1c-.29,0-.46-1.37-.46-11.19,0-4.55-3.09-6.88-9.89-6.88-5.81,0-11.11,2.71-11.11,6.93V89.1h-6.43v-23h6.22v5.3c2.09-4.46,8.19-6,14.07-6,9.94,0,13.61,4.89,13.61,11.36,0,11.65.13,11.85.34,12.31Z" class="cls-1"/><path data-cppathid="10034" d="M511.09,89.1c-.25-.08-.42-.92-.42-2.33V59.34a16.38,16.38,0,0,0-.21-3.26h6.43a20.48,20.48,0,0,1,.17,3.13V86.43c0,1.21.08,2.51.5,2.67Z" class="cls-1"/><path data-cppathid="10035" d="M562.93,83c-2.84,4.09-8.93,6.59-18.37,6.59-8.89,0-15.19-2.5-18.16-6.51a10.2,10.2,0,0,1-1.83-5.59,8.86,8.86,0,0,1,1.75-5.39c3-4.09,9.06-6.72,18.24-6.72,9.52,0,15.37,2.92,18.21,6.6a9.17,9.17,0,0,1,.16,11Zm-6.26-8.81c-2.09-2-6.26-3.47-12.11-3.47s-9.76,1.34-12.14,3.51a4.79,4.79,0,0,0,0,6.6c1.92,2.13,6.3,3.59,12.1,3.59,6.14,0,10.19-1.34,12.24-3.63a5,5,0,0,0,1.33-3.26A4.28,4.28,0,0,0,556.67,74.2Z" class="cls-1"/><path data-cppathid="10036" d="M587.14,89.6c-12.32,0-16.78-1.83-18.16-6.42a5.45,5.45,0,0,1-.29-1.55H575a2,2,0,0,0,.46,1.25c1,1.13,4,1.76,11.73,1.76,9.73,0,11.11-1.09,11.11-2.51,0-1.58-1.26-1.92-9.69-2.34-1.63-.08-4.55-.29-6.51-.41-9.23-.55-12.82-2.68-12.82-6.85,0-4.59,5.34-7.18,16-7.18s15.57,1.58,17.33,5.89a6.62,6.62,0,0,1,.37,1.83h-6.3a2.42,2.42,0,0,0-.38-.87c-1-1.09-3.84-1.8-10.6-1.8-9.19,0-10.35.88-10.35,2.17s1,1.67,9,2.09c2,.12,5,.29,7,.37,9.73.38,13.07,2.51,13.07,7.06C604.38,87,599.7,89.6,587.14,89.6Z" class="cls-1"/><path data-cppathid="10037" d="M657.64,89.1a16.06,16.06,0,0,1-.38-2.63c-1.5,1.55-6.55,3.13-15.19,3.13-9.31,0-14.49-2.08-14.49-6.76v-.62c0-5,5-7.52,18.12-7.56,3.21,0,8.77.33,11.65.62a4.23,4.23,0,0,0-.67-2.42c-1-1.33-4-2.46-10.48-2.46-5.88,0-8.81.71-10,1.88a2.47,2.47,0,0,0-.54,1.38h-6.39a7.16,7.16,0,0,1,.38-1.8c1.46-4,6.6-6.47,16.24-6.47,10.9,0,15.78,2.42,17,7.56a23.81,23.81,0,0,1,.38,4.84c0,.83-.09,3.88-.09,5.76a18.49,18.49,0,0,0,.71,5.55ZM645.16,79c-6.14,0-9,.71-10.27,1.84a2,2,0,0,0-.55,1.37,1.49,1.49,0,0,0,.34,1.09c1,1.13,3.71,1.75,8.22,1.75,8.81,0,14.45-1,14.45-5.55C654.59,79.21,649.62,79,645.16,79Z" class="cls-1"/><path data-cppathid="10038" d="M673.29,89.1c-.25-.08-.42-.92-.42-2.33V59.34a15.61,15.61,0,0,0-.21-3.26h6.43a19.25,19.25,0,0,1,.17,3.13V86.43c0,1.21.08,2.51.5,2.67Z" class="cls-1"/><path data-cppathid="10039" d="M689.9,63v-6.6h6.72V63Zm.67,26.09C690.19,89,690,88,690,85.64V66.14h6.51V85.6c0,2.58,0,3.17.58,3.5Z" class="cls-1"/><path data-cppathid="10040" d="M755.9,78c0-3.76-1.75-6.93-8.93-6.93-5,0-9.31,2-9.31,6.93V89.1h-6V77.41c0-3.92-3.51-6.38-8.69-6.38-5.84,0-9.52,3.29-9.52,6.8V89.1h-6.42v-23h6.22v5.3c1.62-3.92,6.88-5.88,11.94-5.88,5.3,0,10,1.75,11.52,6,1.75-3.93,6-6,12.19-6,9.39,0,12.61,4.59,12.61,11.23,0,11.73,0,12,.41,12.31h-5.59C755.9,89.1,755.9,86.64,755.9,78Z" class="cls-1"/><path data-cppathid="10041" d="M805.73,84.47c-2.54,2.63-7.89,5.18-17.45,5.18-8.76,0-15.15-1.92-18-6.27a10.68,10.68,0,0,1-1.76-6,9.84,9.84,0,0,1,1.8-5.64c3-4,9.52-6.34,17.91-6.34,10.31,0,17.24,3.59,18.87,10a22.28,22.28,0,0,1,.58,4.38H775a4.06,4.06,0,0,0,1.87,2.38c2,1.71,5.89,2.8,11.82,2.8a25.94,25.94,0,0,0,9.48-1.46,7,7,0,0,0,2-1.51h7.1A7.18,7.18,0,0,1,805.73,84.47Zm-5.92-11.31c-1.55-1.63-5.6-2.93-11.74-2.93-5.84,0-10.47,1.26-12.1,3.13a3.69,3.69,0,0,0-1,2.18h26.17A3.4,3.4,0,0,0,799.81,73.16Z" class="cls-1"/><path data-cppathid="10042" d="M841.84,89.1c-.29,0-.46-1.37-.46-11.19,0-4.55-3.09-6.88-9.9-6.88-5.8,0-11.1,2.71-11.1,6.93V89.1H814v-23h6.22v5.3c2.09-4.46,8.18-6,14.07-6,9.94,0,13.61,4.89,13.61,11.36,0,11.65.13,11.85.33,12.31Z" class="cls-1"/><path data-cppathid="10043" d="M866.09,71.78v8.39c0,3,1.33,4.17,5,4.17a43.92,43.92,0,0,0,6.06-.5v4.93a34.67,34.67,0,0,1-8.06.83c-5.59,0-9.43-1.79-9.43-8.09V71.78h-7.06v-5.3h7.06c.16-1.55.16-5.89.16-5.89l6.22-.17v6.06h11.36v5.3Z" class="cls-1"/><path data-cppathid="10044" d="M919.85,83c-2.84,4.09-8.93,6.59-18.37,6.59-8.89,0-15.19-2.5-18.16-6.51a10.2,10.2,0,0,1-1.83-5.59,8.86,8.86,0,0,1,1.75-5.39c3-4.09,9.06-6.72,18.24-6.72,9.52,0,15.37,2.92,18.21,6.6a9.17,9.17,0,0,1,.16,11Zm-6.26-8.81c-2.09-2-6.26-3.47-12.11-3.47s-9.77,1.34-12.15,3.51a4.88,4.88,0,0,0-1.29,3.3,4.82,4.82,0,0,0,1.34,3.3c1.92,2.13,6.3,3.59,12.1,3.59,6.14,0,10.19-1.34,12.24-3.63a5,5,0,0,0,1.33-3.26A4.28,4.28,0,0,0,913.59,74.2Z" class="cls-1"/><path data-cppathid="10045" d="M944.06,89.6c-12.32,0-16.79-1.83-18.16-6.42a5.45,5.45,0,0,1-.29-1.55h6.3a2,2,0,0,0,.46,1.25c1,1.13,4,1.76,11.73,1.76,9.73,0,11.1-1.09,11.1-2.51,0-1.58-1.25-1.92-9.68-2.34-1.63-.08-4.55-.29-6.51-.41-9.23-.55-12.82-2.68-12.82-6.85,0-4.59,5.34-7.18,16-7.18s15.57,1.58,17.33,5.89a6.62,6.62,0,0,1,.37,1.83h-6.3a2.42,2.42,0,0,0-.38-.87c-1-1.09-3.84-1.8-10.6-1.8-9.19,0-10.36.88-10.36,2.17s1,1.67,9,2.09c2,.12,5,.29,7,.37,9.73.38,13.07,2.51,13.07,7.06C961.3,87,956.62,89.6,944.06,89.6Z" class="cls-1"/></svg>