<?xml version="1.0" encoding="UTF-8"?>
<svg xmlns="http://www.w3.org/2000/svg" onmouseup="{ if(window.parent.document.onmouseup) window.parent.document.onmouseup(arguments[0]);}" viewBox="0 0 349.12 71.54" data-name="Capa 1" id="Capa_1"><defs><style>.cls-1{fill:#fff;}</style></defs><path data-cppathid="10000" d="M20.35,48.34V15.74h6.8V42.25H54.62v6.09Z" class="cls-1"/><path data-cppathid="10001" d="M60.88,22.25V15.66H67.6v6.59Zm.66,26.09c-.37-.08-.54-1.12-.54-3.46V25.38h6.51V44.84c0,2.59,0,3.17.59,3.5Z" class="cls-1"/><path data-cppathid="10002" d="M126.88,37.2c0-3.76-1.76-6.93-8.94-6.93-5,0-9.31,2-9.31,6.93V48.34h-6V36.66c0-3.93-3.5-6.39-8.68-6.39-5.85,0-9.52,3.3-9.52,6.8V48.34H78v-23h6.22v5.31c1.63-3.93,6.89-5.89,11.94-5.89,5.3,0,10,1.75,11.52,6,1.76-3.93,6.06-6,12.19-6,9.4,0,12.61,4.59,12.61,11.23,0,11.73,0,12,.42,12.31h-5.59C126.88,48.34,126.88,45.88,126.88,37.2Z" class="cls-1"/><path data-cppathid="10003" d="M177.92,43.21c-2.92,3.51-8.35,5.51-15.28,5.51-5.17,0-11.85-1.25-14.11-4V56.11H142.1V25.42h6.22v3.89c1.76-2.42,7.52-4.55,14.36-4.55,7.77,0,12.82,2.08,15.41,5.51a10.63,10.63,0,0,1,2.17,6.51A10.07,10.07,0,0,1,177.92,43.21ZM172,33c-2-2-5.8-3-10.94-3s-9.39,1.21-11.27,3.46A5.18,5.18,0,0,0,148.32,37a4.82,4.82,0,0,0,1.34,3.3c1.79,2,5.84,3.21,11.35,3.21,5.31,0,9.23-1.17,11.23-3.21a5.23,5.23,0,0,0,1.38-3.63A5,5,0,0,0,172,33Z" class="cls-1"/><path data-cppathid="10004" d="M187.6,22.25V15.66h6.72v6.59Zm.67,26.09c-.38-.08-.55-1.12-.55-3.46V25.38h6.52V44.84c0,2.59,0,3.17.58,3.5Z" class="cls-1"/><path data-cppathid="10005" d="M239.36,43.71c-2.54,2.63-7.89,5.18-17.45,5.18-8.76,0-15.15-1.92-18-6.27a10.68,10.68,0,0,1-1.76-6,9.78,9.78,0,0,1,1.8-5.63c3-4.05,9.52-6.35,17.91-6.35,10.31,0,17.24,3.59,18.87,10a22.28,22.28,0,0,1,.58,4.38H208.59a4.12,4.12,0,0,0,1.88,2.38c2,1.71,5.89,2.8,11.82,2.8a25.83,25.83,0,0,0,9.47-1.46,7,7,0,0,0,2-1.51h7.1A7.1,7.1,0,0,1,239.36,43.71ZM233.43,32.4c-1.54-1.63-5.59-2.93-11.73-2.93-5.84,0-10.48,1.26-12.1,3.14a3.71,3.71,0,0,0-1,2.17h26.18A3.37,3.37,0,0,0,233.43,32.4Z" class="cls-1"/><path data-cppathid="10006" d="M245.07,48.34V43.5L266,31h-20.5V25.72h31.36v4.55l-21.5,12.86H278.1v5.21Z" class="cls-1"/><path data-cppathid="10007" d="M312.45,48.34a16.06,16.06,0,0,1-.38-2.63c-1.5,1.55-6.55,3.14-15.19,3.14-9.31,0-14.49-2.09-14.49-6.77v-.62c0-5,5-7.52,18.12-7.56,3.21,0,8.77.33,11.65.63a4.26,4.26,0,0,0-.67-2.43c-1.05-1.33-4.05-2.46-10.48-2.46-5.89,0-8.81.71-10,1.88a2.5,2.5,0,0,0-.54,1.38H284.1a7.16,7.16,0,0,1,.38-1.8c1.46-4,6.59-6.47,16.24-6.47,10.89,0,15.78,2.42,17,7.56a23.23,23.23,0,0,1,.37,4.84c0,.84-.08,3.88-.08,5.76a18.49,18.49,0,0,0,.71,5.55ZM300,38.2c-6.14,0-9,.71-10.27,1.84a2,2,0,0,0-.55,1.37,1.45,1.45,0,0,0,.34,1.09c1,1.13,3.71,1.75,8.22,1.75,8.81,0,14.45-1,14.45-5.55C309.4,38.45,304.43,38.2,300,38.2Z" class="cls-1"/></svg>