<?xml version="1.0" encoding="UTF-8"?>
<svg xmlns="http://www.w3.org/2000/svg" onmouseup="{ if(window.parent.document.onmouseup) window.parent.document.onmouseup(arguments[0]);}" viewBox="0 0 493.55 96.69" data-name="Capa 1" id="Capa_1"><defs><style>.cls-1{fill:#fff;}</style></defs><path data-cppathid="10000" d="M48.68,65H24.54V32.41H48.59c9.69,0,15.11,3,17.49,8.1a19.05,19.05,0,0,1,1.51,7.85,20.69,20.69,0,0,1-1.51,8.14C63.7,61.84,58.19,65,48.68,65Zm12-16.36a12.73,12.73,0,0,0-1-5.3c-1.67-3.38-5.42-5.14-11.89-5.14H31.31v21h16c6.84,0,10.68-1.71,12.39-5.05A12.67,12.67,0,0,0,60.66,48.65Z" class="cls-1"/><path data-cppathid="10001" d="M109.58,60.38C107,63,101.69,65.56,92.12,65.56c-8.76,0-15.15-1.92-18-6.27a10.66,10.66,0,0,1-1.75-6,9.85,9.85,0,0,1,1.79-5.63c3-4,9.52-6.35,17.91-6.35,10.31,0,17.24,3.59,18.87,10a22.3,22.3,0,0,1,.59,4.38H78.81A4.12,4.12,0,0,0,80.69,58c2,1.71,5.88,2.8,11.81,2.8A25.9,25.9,0,0,0,102,59.34a7,7,0,0,0,2-1.51h7.1A7.06,7.06,0,0,1,109.58,60.38Zm-5.93-11.31c-1.55-1.63-5.6-2.93-11.73-2.93-5.85,0-10.48,1.26-12.11,3.14a3.64,3.64,0,0,0-1,2.17H105A3.4,3.4,0,0,0,103.65,49.07Z" class="cls-1"/><path data-cppathid="10002" d="M133.2,65.52c-12.32,0-16.79-1.84-18.16-6.43a5.49,5.49,0,0,1-.3-1.55h6.31a2,2,0,0,0,.46,1.25c1,1.13,4,1.76,11.73,1.76,9.73,0,11.1-1.09,11.1-2.51,0-1.58-1.25-1.92-9.68-2.34-1.63-.08-4.55-.29-6.51-.41-9.23-.55-12.82-2.67-12.82-6.85,0-4.59,5.34-7.18,16-7.18s15.57,1.59,17.33,5.89a6.68,6.68,0,0,1,.37,1.83h-6.3a2.42,2.42,0,0,0-.38-.87c-1-1.09-3.84-1.8-10.6-1.8-9.19,0-10.36.88-10.36,2.17s1,1.67,9,2.09c2,.13,5,.29,7,.38,9.73.37,13.07,2.5,13.07,7C150.44,62.89,145.76,65.52,133.2,65.52Z" class="cls-1"/><path data-cppathid="10003" d="M157.9,38.92V32.33h6.73v6.59ZM158.57,65c-.37-.08-.54-1.12-.54-3.46V42.05h6.51V61.51c0,2.59,0,3.17.59,3.5Z" class="cls-1"/><path data-cppathid="10004" d="M203,65c-.3,0-.46-1.37-.46-11.18,0-4.55-3.09-6.89-9.9-6.89-5.8,0-11.1,2.71-11.1,6.93V65h-6.43v-23h6.22v5.31c2.09-4.47,8.18-6,14.07-6,9.93,0,13.61,4.89,13.61,11.36,0,11.65.12,11.86.33,12.31Z" class="cls-1"/><path data-cppathid="10005" d="M228,47.69V65h-6.47V47.69h-7.22v-5.3h7.22V40.3c0-5,3.17-8.73,11.1-8.73,2,0,6.56.17,7.64.34v5.38a63.69,63.69,0,0,0-7.05-.37c-4.22,0-5.35,1.5-5.35,3.76v1.71h12.49v5.3Z" class="cls-1"/><path data-cppathid="10006" d="M280.17,60.38c-2.55,2.63-7.89,5.18-17.45,5.18-8.77,0-15.16-1.92-18-6.27a10.74,10.74,0,0,1-1.75-6,9.85,9.85,0,0,1,1.79-5.63c3-4,9.52-6.35,17.91-6.35,10.31,0,17.25,3.59,18.87,10a21.57,21.57,0,0,1,.59,4.38H249.4A4.12,4.12,0,0,0,251.28,58c2,1.71,5.88,2.8,11.81,2.8a25.86,25.86,0,0,0,9.48-1.46,6.83,6.83,0,0,0,2-1.51h7.1A7.06,7.06,0,0,1,280.17,60.38Zm-5.93-11.31c-1.55-1.63-5.59-2.93-11.73-2.93-5.85,0-10.48,1.26-12.11,3.14a3.64,3.64,0,0,0-1,2.17h26.17A3.4,3.4,0,0,0,274.24,49.07Z" class="cls-1"/><path data-cppathid="10007" d="M317.82,51.24c-.8-3-4.72-4.59-12.19-4.59-5.93,0-10.23,1.25-12.32,3.67a5,5,0,0,0-1.13,3.26,5.17,5.17,0,0,0,1.17,3.29c1.88,2.34,6.51,3.47,12.32,3.47s9-.84,10.64-2.17a5.76,5.76,0,0,0,1.46-1.84h6.52a9.41,9.41,0,0,1-1.92,4.09c-2.72,3.09-7.94,5.1-16.74,5.1-9.15,0-15.28-2.26-18-5.89a10,10,0,0,1-1.92-6.18,9.51,9.51,0,0,1,2-6c3-3.8,9.23-6.18,18-6.18,9,0,14.48,2.26,17,6a10,10,0,0,1,1.5,3.93Z" class="cls-1"/><path data-cppathid="10008" d="M360.85,51.24c-.79-3-4.72-4.59-12.19-4.59-5.93,0-10.23,1.25-12.32,3.67a5,5,0,0,0-1.12,3.26,5.17,5.17,0,0,0,1.17,3.29c1.87,2.34,6.51,3.47,12.31,3.47s9-.84,10.65-2.17a5.9,5.9,0,0,0,1.46-1.84h6.51a9.41,9.41,0,0,1-1.92,4.09c-2.71,3.09-7.93,5.1-16.74,5.1-9.14,0-15.28-2.26-18-5.89a10,10,0,0,1-1.92-6.18,9.46,9.46,0,0,1,2-6c3-3.8,9.22-6.18,18-6.18,9,0,14.49,2.26,17,6a10.06,10.06,0,0,1,1.51,3.93Z" class="cls-1"/><path data-cppathid="10009" d="M374.87,38.92V32.33h6.72v6.59ZM375.54,65c-.38-.08-.55-1.12-.55-3.46V42.05h6.52V61.51c0,2.59,0,3.17.58,3.5Z" class="cls-1"/><path data-cppathid="10010" d="M427.68,58.92c-2.84,4.09-8.94,6.6-18.37,6.6-8.89,0-15.2-2.51-18.16-6.52a10.14,10.14,0,0,1-1.84-5.59A8.86,8.86,0,0,1,391.06,48c3-4.09,9.06-6.72,18.25-6.72,9.52,0,15.36,2.92,18.2,6.6a9.19,9.19,0,0,1,.17,11Zm-6.27-8.81c-2.08-2-6.26-3.46-12.1-3.46s-9.77,1.33-12.15,3.5a4.79,4.79,0,0,0,0,6.6c1.92,2.13,6.3,3.59,12.11,3.59,6.13,0,10.18-1.34,12.23-3.63a5,5,0,0,0,1.34-3.26A4.29,4.29,0,0,0,421.41,50.11ZM411.1,32.58h6.77l-6.39,7.22h-6Z" class="cls-1"/><path data-cppathid="10011" d="M464.36,65c-.29,0-.46-1.37-.46-11.18,0-4.55-3.08-6.89-9.89-6.89-5.8,0-11.1,2.71-11.1,6.93V65h-6.43v-23h6.22v5.31c2.08-4.47,8.18-6,14.07-6,9.93,0,13.61,4.89,13.61,11.36,0,11.65.12,11.86.33,12.31Z" class="cls-1"/></svg>