<?xml version="1.0" encoding="UTF-8"?>
<svg xmlns="http://www.w3.org/2000/svg" onmouseup="{ if(window.parent.document.onmouseup) window.parent.document.onmouseup(arguments[0]);}" viewBox="0 0 1021.14 96.69" data-name="Capa 1" id="Capa_1"><defs><style>.cls-1{fill:#fff;}</style></defs><path data-cppathid="10000" d="M13.35,56.63H6L27.75,24h7.68L56.64,56.63H49.08L44.2,49.37H18.32ZM33.3,32.33l-1.92-3.21-2,3.21L21.78,43.48h19Z" class="cls-1"/><path data-cppathid="10001" d="M90.57,42.85c-.79-3-4.71-4.59-12.19-4.59-5.93,0-10.23,1.25-12.31,3.67a5.07,5.07,0,0,0-1.13,3.26,5.21,5.21,0,0,0,1.17,3.3C68,50.83,72.62,52,78.42,52s9-.83,10.65-2.17A6,6,0,0,0,90.53,48H97A9.3,9.3,0,0,1,95.12,52c-2.71,3.09-7.93,5.09-16.74,5.09-9.14,0-15.28-2.25-18-5.89a10,10,0,0,1-1.92-6.18,9.48,9.48,0,0,1,2-6c3-3.8,9.23-6.18,18-6.18,9,0,14.49,2.25,17,6a10,10,0,0,1,1.5,3.92Z" class="cls-1"/><path data-cppathid="10002" d="M113,39.3v8.4c0,3,1.34,4.17,5,4.17a44.05,44.05,0,0,0,6.06-.5V56.3a35.24,35.24,0,0,1-8.06.83c-5.6,0-9.44-1.79-9.44-8.1V39.3H99.46V34h7.05c.17-1.54.17-5.88.17-5.88L112.9,28V34h11.36v5.3Z" class="cls-1"/><path data-cppathid="10003" d="M131.52,30.54v-6.6h6.72v6.6Zm.66,26.09c-.37-.08-.54-1.13-.54-3.47V33.67h6.51V53.12c0,2.59,0,3.18.59,3.51Z" class="cls-1"/><path data-cppathid="10004" d="M166.91,56.63h-7.64l-16.4-23h7l13.23,17.91,13.2-17.91h6.8Z" class="cls-1"/><path data-cppathid="10005" d="M187.49,30.54v-6.6h6.72v6.6Zm.67,26.09c-.38-.08-.55-1.13-.55-3.47V33.67h6.52V53.12c0,2.59,0,3.18.58,3.51Z" class="cls-1"/><path data-cppathid="10006" d="M234.12,37.38V23.73h6.34V53.87a22.81,22.81,0,0,0,.25,2.76h-6.26l-.17-4.26c-2,3.09-7.93,4.72-14,4.72-8.44,0-13.86-2.09-16.41-5.8a10.51,10.51,0,0,1-1.92-6.1,10.91,10.91,0,0,1,1.88-6.3c2.5-3.8,7.68-6,15.7-6C226.27,32.92,231.78,34.29,234.12,37.38ZM209.65,41.6a5.44,5.44,0,0,0-1.25,3.55,5.19,5.19,0,0,0,1.25,3.51c2,2.25,6.1,3.34,12.11,3.34s10-1.17,11.61-3.68a5.46,5.46,0,0,0,.87-3.17A5.13,5.13,0,0,0,233,41.56c-2-2.17-5.93-3.3-11.73-3.3S211.41,39.43,209.65,41.6Z" class="cls-1"/><path data-cppathid="10007" d="M277.48,56.63a16.34,16.34,0,0,1-.37-2.63c-1.5,1.54-6.55,3.13-15.2,3.13-9.31,0-14.48-2.09-14.48-6.76v-.63c0-5,5-7.51,18.12-7.56,3.21,0,8.76.34,11.64.63a4.13,4.13,0,0,0-.67-2.42c-1-1.34-4-2.46-10.47-2.46-5.89,0-8.81.71-10,1.87a2.43,2.43,0,0,0-.54,1.38h-6.39a7.52,7.52,0,0,1,.37-1.79c1.47-4,6.6-6.47,16.24-6.47,10.9,0,15.78,2.42,17,7.55a24,24,0,0,1,.37,4.85c0,.83-.08,3.88-.08,5.76a18.27,18.27,0,0,0,.71,5.55ZM265,46.48c-6.13,0-9,.71-10.27,1.84a2,2,0,0,0-.54,1.38,1.47,1.47,0,0,0,.33,1.08c1,1.13,3.72,1.76,8.23,1.76,8.81,0,14.44-1,14.44-5.55C274.44,46.73,269.47,46.48,265,46.48Z" class="cls-1"/><path data-cppathid="10008" d="M321.73,37.38V23.73h6.35V53.87a22.81,22.81,0,0,0,.25,2.76h-6.27l-.16-4.26c-2,3.09-7.94,4.72-14,4.72-8.43,0-13.86-2.09-16.41-5.8a10.51,10.51,0,0,1-1.92-6.1,10.91,10.91,0,0,1,1.88-6.3c2.51-3.8,7.68-6,15.7-6C313.88,32.92,319.39,34.29,321.73,37.38ZM297.27,41.6A5.39,5.39,0,0,0,296,45.15a5.14,5.14,0,0,0,1.26,3.51c2,2.25,6.09,3.34,12.1,3.34s10-1.17,11.61-3.68a5.39,5.39,0,0,0,.88-3.17,5.14,5.14,0,0,0-1.3-3.59c-2-2.17-5.93-3.3-11.73-3.3S299,39.43,297.27,41.6Z" class="cls-1"/><path data-cppathid="10009" d="M385.76,37.38V23.73h6.35V53.87a22.81,22.81,0,0,0,.25,2.76h-6.27l-.16-4.26c-2,3.09-7.94,4.72-14,4.72-8.43,0-13.86-2.09-16.41-5.8a10.51,10.51,0,0,1-1.92-6.1,10.91,10.91,0,0,1,1.88-6.3c2.51-3.8,7.68-6,15.7-6C377.91,32.92,383.42,34.29,385.76,37.38ZM361.3,41.6A5.39,5.39,0,0,0,360,45.15a5.14,5.14,0,0,0,1.26,3.51c2,2.25,6.09,3.34,12.1,3.34s10-1.17,11.61-3.68a5.47,5.47,0,0,0,.88-3.17,5.14,5.14,0,0,0-1.3-3.59c-2-2.17-5.93-3.3-11.73-3.3S363.05,39.43,361.3,41.6Z" class="cls-1"/><path data-cppathid="10010" d="M436.23,52c-2.55,2.63-7.9,5.17-17.46,5.17-8.76,0-15.15-1.92-18-6.26a10.68,10.68,0,0,1-1.75-6,9.81,9.81,0,0,1,1.79-5.64c3-4,9.52-6.35,17.91-6.35,10.31,0,17.24,3.6,18.87,10a22.4,22.4,0,0,1,.59,4.39H405.46a4.08,4.08,0,0,0,1.88,2.38c2,1.71,5.88,2.79,11.81,2.79A25.94,25.94,0,0,0,428.63,51a6.77,6.77,0,0,0,2-1.5h7.1A7.23,7.23,0,0,1,436.23,52ZM430.3,40.68c-1.55-1.63-5.6-2.92-11.73-2.92-5.85,0-10.48,1.25-12.11,3.13a3.66,3.66,0,0,0-1,2.17h26.17A3.43,3.43,0,0,0,430.3,40.68Z" class="cls-1"/><path data-cppathid="10011" d="M478.55,57.13c-12.32,0-16.79-1.84-18.16-6.43a5.49,5.49,0,0,1-.3-1.54h6.31a2,2,0,0,0,.46,1.25c1,1.13,4.05,1.75,11.73,1.75,9.73,0,11.1-1.08,11.1-2.5,0-1.59-1.25-1.92-9.68-2.34-1.63-.08-4.55-.29-6.52-.42-9.22-.54-12.81-2.67-12.81-6.85,0-4.59,5.34-7.18,16-7.18s15.57,1.59,17.32,5.89a6.77,6.77,0,0,1,.38,1.84h-6.3a2.65,2.65,0,0,0-.38-.88c-1-1.08-3.84-1.79-10.6-1.79-9.19,0-10.36.87-10.36,2.17s1,1.67,9,2.08c2,.13,5,.3,7,.38,9.73.38,13.07,2.5,13.07,7.06C495.79,54.5,491.11,57.13,478.55,57.13Z" class="cls-1"/><path data-cppathid="10012" d="M503.25,30.54v-6.6H510v6.6Zm.67,26.09c-.37-.08-.54-1.13-.54-3.47V33.67h6.51V53.12c0,2.59,0,3.18.59,3.51Z" class="cls-1"/><path data-cppathid="10013" d="M529.22,39.3v8.4c0,3,1.33,4.17,5,4.17a43.92,43.92,0,0,0,6.06-.5V56.3a35.24,35.24,0,0,1-8.06.83c-5.59,0-9.43-1.79-9.43-8.1V39.3h-7.06V34h7.06c.16-1.54.16-5.88.16-5.88l6.22-.17V34h11.36v5.3Z" class="cls-1"/><path data-cppathid="10014" d="M547.75,30.54v-6.6h6.72v6.6Zm.66,26.09c-.37-.08-.54-1.13-.54-3.47V33.67h6.52V53.12c0,2.59,0,3.18.58,3.51Z" class="cls-1"/><path data-cppathid="10015" d="M600.55,50.53c-2.83,4.1-8.93,6.6-18.36,6.6-8.9,0-15.2-2.5-18.17-6.51a10.24,10.24,0,0,1-1.83-5.6,8.81,8.81,0,0,1,1.75-5.38c3-4.09,9.06-6.72,18.25-6.72,9.51,0,15.36,2.92,18.2,6.59a9.17,9.17,0,0,1,.16,11Zm-6.26-8.81c-2.09-2-6.26-3.46-12.1-3.46S572.42,39.6,570,41.77a4.77,4.77,0,0,0,0,6.59C572,50.49,576.38,52,582.19,52c6.13,0,10.18-1.33,12.23-3.63a5,5,0,0,0,1.33-3.26A4.31,4.31,0,0,0,594.29,41.72Z" class="cls-1"/><path data-cppathid="10016" d="M624.76,57.13c-12.32,0-16.78-1.84-18.16-6.43a5.45,5.45,0,0,1-.29-1.54h6.3a2.06,2.06,0,0,0,.46,1.25c1,1.13,4,1.75,11.73,1.75,9.73,0,11.11-1.08,11.11-2.5,0-1.59-1.26-1.92-9.69-2.34-1.63-.08-4.55-.29-6.51-.42-9.23-.54-12.82-2.67-12.82-6.85,0-4.59,5.34-7.18,16-7.18s15.57,1.59,17.33,5.89a6.67,6.67,0,0,1,.37,1.84h-6.3a2.46,2.46,0,0,0-.38-.88c-1-1.08-3.84-1.79-10.6-1.79-9.18,0-10.35.87-10.35,2.17s1,1.67,9,2.08c2,.13,5,.3,7,.38,9.73.38,13.07,2.5,13.07,7.06C642,54.5,637.33,57.13,624.76,57.13Z" class="cls-1"/><path data-cppathid="10017" d="M697.22,37.38V23.73h6.35V53.87a22.81,22.81,0,0,0,.25,2.76h-6.26l-.17-4.26c-2,3.09-7.93,4.72-14,4.72-8.43,0-13.86-2.09-16.4-5.8a10.51,10.51,0,0,1-1.92-6.1,10.9,10.9,0,0,1,1.87-6.3c2.51-3.8,7.69-6,15.7-6C689.37,32.92,694.89,34.29,697.22,37.38ZM672.76,41.6a5.39,5.39,0,0,0-1.25,3.55,5.14,5.14,0,0,0,1.25,3.51c2,2.25,6.09,3.34,12.11,3.34s10-1.17,11.6-3.68a5.39,5.39,0,0,0,.88-3.17,5.14,5.14,0,0,0-1.3-3.59c-2-2.17-5.92-3.3-11.73-3.3S674.51,39.43,672.76,41.6Z" class="cls-1"/><path data-cppathid="10018" d="M747.69,52c-2.55,2.63-7.89,5.17-17.45,5.17-8.77,0-15.16-1.92-18-6.26a10.76,10.76,0,0,1-1.75-6,9.88,9.88,0,0,1,1.79-5.64c3-4,9.52-6.35,17.91-6.35,10.32,0,17.25,3.6,18.87,10a21.67,21.67,0,0,1,.59,4.39H716.92a4.12,4.12,0,0,0,1.88,2.38c2,1.71,5.89,2.79,11.81,2.79A25.86,25.86,0,0,0,740.09,51a6.64,6.64,0,0,0,2-1.5h7.1A7.23,7.23,0,0,1,747.69,52Zm-5.93-11.32c-1.54-1.63-5.59-2.92-11.73-2.92-5.85,0-10.48,1.25-12.11,3.13a3.72,3.72,0,0,0-1,2.17H743.1A3.45,3.45,0,0,0,741.76,40.68Z" class="cls-1"/><path data-cppathid="10019" d="M799.4,39.85a38.45,38.45,0,0,0-7.35-.67c-5.63,0-11,3-11,9.14v8.31H774.6v-23h6.27v5.88c1.12-3.21,5.55-5.8,11.06-6.13a33.91,33.91,0,0,1,7.47.21Z" class="cls-1"/><path data-cppathid="10020" d="M838.93,52c-2.54,2.63-7.89,5.17-17.45,5.17-8.77,0-15.15-1.92-18-6.26a10.7,10.7,0,0,1-1.76-6,9.81,9.81,0,0,1,1.8-5.64c3-4,9.52-6.35,17.91-6.35,10.31,0,17.24,3.6,18.87,10a22.38,22.38,0,0,1,.58,4.39H808.16A4.12,4.12,0,0,0,810,49.62c2,1.71,5.89,2.79,11.82,2.79A25.83,25.83,0,0,0,831.33,51a6.82,6.82,0,0,0,2-1.5h7.09A7.08,7.08,0,0,1,838.93,52ZM833,40.68c-1.54-1.63-5.59-2.92-11.73-2.92-5.84,0-10.48,1.25-12.1,3.13a3.74,3.74,0,0,0-1,2.17h26.18A3.41,3.41,0,0,0,833,40.68Z" class="cls-1"/><path data-cppathid="10021" d="M857,39.3V56.63h-6.47V39.3h-7.22V34h7.22V31.91c0-5,3.17-8.72,11.11-8.72,2,0,6.55.17,7.64.33v5.39a61.07,61.07,0,0,0-7.06-.38c-4.22,0-5.34,1.51-5.34,3.76V34H869.4v5.3Z" class="cls-1"/><path data-cppathid="10022" d="M908.51,56.63h-6.26l-.17-4.13c-3,3.88-8.76,4.71-14.19,4.71-8.39,0-13.49-2.5-13.49-9.81,0-13.23-.16-13.4-.41-13.73h6.63c.21,0,.26,5.63.26,11.56,0,5,2.46,6.56,9.6,6.56,6.84,0,11.39-2.84,11.39-6.68V33.67h6.52V52C908.39,55.25,908.51,56.5,908.51,56.63Z" class="cls-1"/><path data-cppathid="10023" d="M943.74,34.8c1.84-1.55,6.93-1.84,9.23-1.47V37.8c-2.55,0-5.43.17-6.18.63a5.36,5.36,0,0,1,1.71,2.84,7.34,7.34,0,0,1-.13,2.67c-.91,3.84-5,6.39-15.57,6.39A37.45,37.45,0,0,1,922.66,49a1.31,1.31,0,0,0-1.17,1.3c0,1,.88,1.58,13.07,1.58,13.52,0,17.57,1.46,17.57,5.89,0,5.05-6.43,7.39-19.79,7.39-14.23,0-18.45-2.76-18.45-6,0-2.55,2.92-3.8,5.39-4.18-2-.75-3.39-2-3.39-3.88a3.81,3.81,0,0,1,3.93-3.55,6.58,6.58,0,0,1-4.47-5.47,6.71,6.71,0,0,1,0-2c.71-4.05,5.76-7.39,16.2-7.39C937.1,32.71,941.28,33.58,943.74,34.8Zm1.71,23.42c0-1.55-1.46-1.59-11.27-1.84-4-.08-9.48,0-11.94-.13-1.21.17-2.13.71-2.13,1.76,0,1.25,2,2.46,11.82,2.46C943.16,60.47,945.41,59.55,945.45,58.22Zm-23.84-17a4.7,4.7,0,0,0,0,1.05c.25,2.38,3.68,3.67,10.23,3.67,7.31,0,10.06-1.38,10.4-3.71a6.32,6.32,0,0,0-.05-1.26c-.41-2.08-3.29-3.46-10.22-3.46C925.29,37.51,922,38.8,921.61,41.22Z" class="cls-1"/><path data-cppathid="10024" d="M958.09,30.54v-6.6h6.73v6.6Zm.67,26.09c-.37-.08-.54-1.13-.54-3.47V33.67h6.51V53.12c0,2.59,0,3.18.59,3.51Z" class="cls-1"/><path data-cppathid="10025" d="M1010.9,50.53c-2.84,4.1-8.93,6.6-18.37,6.6-8.89,0-15.19-2.5-18.16-6.51a10.17,10.17,0,0,1-1.84-5.6,8.82,8.82,0,0,1,1.76-5.38c3-4.09,9.06-6.72,18.24-6.72,9.52,0,15.37,2.92,18.2,6.59a9.19,9.19,0,0,1,.17,11Zm-6.26-8.81c-2.09-2-6.26-3.46-12.11-3.46s-9.77,1.34-12.15,3.51a4.86,4.86,0,0,0-1.29,3.29,4.8,4.8,0,0,0,1.34,3.3c1.92,2.13,6.3,3.59,12.1,3.59,6.14,0,10.19-1.33,12.23-3.63a5,5,0,0,0,1.34-3.26A4.35,4.35,0,0,0,1004.64,41.72Z" class="cls-1"/></svg>