<?xml version="1.0" encoding="UTF-8"?>
<svg xmlns="http://www.w3.org/2000/svg" onmouseup="{ if(window.parent.document.onmouseup) window.parent.document.onmouseup(arguments[0]);}" viewBox="0 0 1261.44 96.69" data-name="Capa 1" id="Capa_1"><defs><style>.cls-1{fill:#fff;}</style></defs><path data-cppathid="10000" d="M29.38,33.72V60.23H22.53V33.72H4.16v-6.1h43.5v6.1Z" class="cls-1"/><path data-cppathid="10001" d="M75.38,43.45A38.53,38.53,0,0,0,68,42.78c-5.64,0-11,3-11,9.14v8.31H50.58v-23h6.26v5.88C58,39.94,62.39,37.35,67.91,37a33.3,33.3,0,0,1,7.47.21Z" class="cls-1"/><path data-cppathid="10002" d="M107.23,60.23a16.06,16.06,0,0,1-.38-2.63c-1.5,1.54-6.55,3.13-15.2,3.13-9.31,0-14.48-2.09-14.48-6.76v-.63c0-5,5-7.52,18.12-7.56,3.21,0,8.76.34,11.64.63a4.19,4.19,0,0,0-.66-2.42c-1-1.34-4-2.46-10.48-2.46-5.89,0-8.81.71-10,1.87a2.5,2.5,0,0,0-.54,1.38H78.88A7.09,7.09,0,0,1,79.26,43c1.46-4,6.59-6.47,16.24-6.47,10.89,0,15.78,2.42,17,7.55a24,24,0,0,1,.37,4.84c0,.84-.08,3.89-.08,5.77a18.27,18.27,0,0,0,.71,5.55ZM94.74,50.08c-6.13,0-9,.71-10.27,1.84a2,2,0,0,0-.54,1.38,1.47,1.47,0,0,0,.33,1.08c1,1.13,3.72,1.76,8.23,1.76,8.81,0,14.44-1,14.44-5.56C104.18,50.33,99.21,50.08,94.74,50.08Z" class="cls-1"/><path data-cppathid="10003" d="M158.78,43.32A11,11,0,0,1,160,48.66a10.44,10.44,0,0,1-1.38,5.39c-2.5,4.17-8.14,6.55-15.74,6.55-5.88,0-12-1.42-14.48-4.25v3.88H122V27.08h6.43v14c1.92-2.38,6-4.47,14.4-4.47C151.6,36.6,156.65,39.27,158.78,43.32ZM128.84,46a6.34,6.34,0,0,0-.62,2.76,5,5,0,0,0,.87,2.92c1.55,2.21,5.39,3.72,11.69,3.72,6.1,0,9.86-1.3,11.57-3.43a5.58,5.58,0,0,0,0-6.76c-1.92-2.34-6.22-3.42-11.69-3.42C133.81,41.82,130.26,43.61,128.84,46Z" class="cls-1"/><path data-cppathid="10004" d="M194.92,60.23a15.26,15.26,0,0,1-.37-2.63c-1.51,1.54-6.56,3.13-15.2,3.13-9.31,0-14.49-2.09-14.49-6.76v-.63c0-5,5-7.52,18.12-7.56,3.22,0,8.77.34,11.65.63A4.21,4.21,0,0,0,194,44c-1-1.34-4.05-2.46-10.48-2.46-5.88,0-8.81.71-10,1.87a2.44,2.44,0,0,0-.55,1.38h-6.38A7.05,7.05,0,0,1,167,43c1.46-4,6.6-6.47,16.24-6.47,10.9,0,15.78,2.42,17,7.55a23.93,23.93,0,0,1,.38,4.84c0,.84-.09,3.89-.09,5.77a18.6,18.6,0,0,0,.71,5.55ZM182.44,50.08c-6.14,0-9,.71-10.27,1.84a2,2,0,0,0-.54,1.38,1.47,1.47,0,0,0,.33,1.08c1,1.13,3.72,1.76,8.22,1.76,8.81,0,14.45-1,14.45-5.56C191.87,50.33,186.91,50.08,182.44,50.08Z" class="cls-1"/><path data-cppathid="10005" d="M207.73,68.41a30,30,0,0,1-4.93-.33V62.52c.59,0,2.09.21,4.1.21,2.25,0,4.84-.92,4.84-4.63V37.27h6.47V57.85C218.21,64.53,213.87,68.41,207.73,68.41Zm3.84-34.27V27.58h6.72v6.56Z" class="cls-1"/><path data-cppathid="10006" d="M255.57,60.23a16.06,16.06,0,0,1-.38-2.63c-1.5,1.54-6.55,3.13-15.19,3.13-9.31,0-14.49-2.09-14.49-6.76v-.63c0-5,5-7.52,18.12-7.56,3.21,0,8.77.34,11.65.63a4.21,4.21,0,0,0-.67-2.42c-1-1.34-4.05-2.46-10.48-2.46-5.89,0-8.81.71-10,1.87a2.5,2.5,0,0,0-.54,1.38h-6.39A7.09,7.09,0,0,1,227.6,43c1.46-4,6.59-6.47,16.24-6.47,10.89,0,15.78,2.42,17,7.55a23.93,23.93,0,0,1,.38,4.84c0,.84-.09,3.89-.09,5.77a18.6,18.6,0,0,0,.71,5.55ZM243.09,50.08c-6.14,0-9,.71-10.27,1.84a2,2,0,0,0-.55,1.38,1.48,1.48,0,0,0,.34,1.08c1,1.13,3.71,1.76,8.22,1.76,8.81,0,14.45-1,14.45-5.56C252.52,50.33,247.55,50.08,243.09,50.08Z" class="cls-1"/><path data-cppathid="10007" d="M298.23,60.23c-.29,0-.46-1.38-.46-11.19,0-4.55-3.09-6.89-9.9-6.89-5.8,0-11.1,2.71-11.1,6.93V60.23h-6.43v-23h6.22v5.3c2.09-4.47,8.18-6,14.07-6,9.94,0,13.61,4.88,13.61,11.35,0,11.65.12,11.86.33,12.32Z" class="cls-1"/><path data-cppathid="10008" d="M343.14,41V27.33h6.35V57.47a22.81,22.81,0,0,0,.25,2.76h-6.27L343.31,56c-2,3.09-7.93,4.72-14,4.72-8.43,0-13.86-2.09-16.41-5.81A10.45,10.45,0,0,1,311,48.79a10.91,10.91,0,0,1,1.88-6.3c2.51-3.8,7.68-6,15.7-6C335.29,36.52,340.8,37.89,343.14,41ZM318.68,45.2a5.39,5.39,0,0,0-1.26,3.55,5.14,5.14,0,0,0,1.26,3.5c2,2.26,6.09,3.34,12.1,3.34s10-1.16,11.61-3.67a5.39,5.39,0,0,0,.88-3.17,5.14,5.14,0,0,0-1.3-3.59c-2-2.17-5.93-3.3-11.73-3.3S320.43,43,318.68,45.2Z" class="cls-1"/><path data-cppathid="10009" d="M394.65,54.13c-2.84,4.09-8.93,6.6-18.37,6.6-8.89,0-15.2-2.51-18.16-6.51a10.17,10.17,0,0,1-1.84-5.6A8.82,8.82,0,0,1,358,43.24c3-4.09,9.06-6.72,18.24-6.72,9.52,0,15.36,2.92,18.2,6.59a9.19,9.19,0,0,1,.17,11Zm-6.26-8.81c-2.09-2-6.26-3.46-12.11-3.46s-9.77,1.34-12.15,3.51a4.8,4.8,0,0,0,0,6.59c1.92,2.13,6.31,3.59,12.11,3.59,6.14,0,10.19-1.33,12.23-3.63a5,5,0,0,0,1.34-3.26A4.32,4.32,0,0,0,388.39,45.32Z" class="cls-1"/><path data-cppathid="10010" d="M451.58,46.45c-.79-3-4.72-4.59-12.19-4.59-5.93,0-10.23,1.25-12.31,3.67A5.07,5.07,0,0,0,426,48.79a5.21,5.21,0,0,0,1.17,3.3c1.88,2.34,6.51,3.46,12.31,3.46s9-.83,10.65-2.17a5.9,5.9,0,0,0,1.46-1.84h6.51a9.28,9.28,0,0,1-1.92,4.1c-2.71,3.09-7.93,5.09-16.74,5.09-9.14,0-15.28-2.26-18-5.89a10,10,0,0,1-1.92-6.18,9.53,9.53,0,0,1,2-6c3-3.79,9.22-6.17,18-6.17,9,0,14.49,2.25,17,6a10,10,0,0,1,1.51,3.92Z" class="cls-1"/><path data-cppathid="10011" d="M500.84,54.13c-2.84,4.09-8.94,6.6-18.37,6.6-8.9,0-15.2-2.51-18.16-6.51a10.17,10.17,0,0,1-1.84-5.6,8.81,8.81,0,0,1,1.75-5.38c3-4.09,9.06-6.72,18.25-6.72,9.52,0,15.36,2.92,18.2,6.59a9.19,9.19,0,0,1,.17,11Zm-6.27-8.81c-2.08-2-6.26-3.46-12.1-3.46s-9.77,1.34-12.15,3.51a4.77,4.77,0,0,0,0,6.59c1.92,2.13,6.3,3.59,12.11,3.59,6.13,0,10.18-1.33,12.23-3.63A5,5,0,0,0,496,48.66,4.29,4.29,0,0,0,494.57,45.32Z" class="cls-1"/><path data-cppathid="10012" d="M537.52,60.23c-.29,0-.46-1.38-.46-11.19,0-4.55-3.08-6.89-9.89-6.89-5.8,0-11.1,2.71-11.1,6.93V60.23h-6.43v-23h6.22v5.3c2.08-4.47,8.18-6,14.07-6,9.93,0,13.61,4.88,13.61,11.35,0,11.65.12,11.86.33,12.32Z" class="cls-1"/><path data-cppathid="10013" d="M607.48,55.09c-2.92,3.51-8.35,5.51-15.28,5.51-5.17,0-11.85-1.25-14.11-4.05V68h-6.43V37.31h6.22v3.88c1.76-2.42,7.52-4.55,14.36-4.55,7.77,0,12.82,2.09,15.41,5.51a10.63,10.63,0,0,1,2.17,6.51A10,10,0,0,1,607.48,55.09Zm-6-10.18c-2-2-5.8-3-10.94-3s-9.39,1.21-11.27,3.46a5.21,5.21,0,0,0-1.42,3.59,4.8,4.8,0,0,0,1.34,3.3c1.79,2,5.84,3.22,11.35,3.22,5.31,0,9.23-1.17,11.23-3.22a5.15,5.15,0,0,0,1.38-3.63A4.93,4.93,0,0,0,601.51,44.91Z" class="cls-1"/><path data-cppathid="10014" d="M641.54,43.45a38.45,38.45,0,0,0-7.35-.67c-5.63,0-11,3-11,9.14v8.31h-6.47v-23H623v5.88c1.13-3.21,5.56-5.8,11.07-6.13a33.3,33.3,0,0,1,7.47.21Z" class="cls-1"/><path data-cppathid="10015" d="M682.11,54.13c-2.84,4.09-8.93,6.6-18.37,6.6-8.89,0-15.19-2.51-18.16-6.51a10.24,10.24,0,0,1-1.83-5.6,8.81,8.81,0,0,1,1.75-5.38c3-4.09,9.06-6.72,18.24-6.72,9.52,0,15.37,2.92,18.21,6.59a9.17,9.17,0,0,1,.16,11Zm-6.26-8.81c-2.09-2-6.26-3.46-12.11-3.46S654,43.2,651.6,45.37a4.77,4.77,0,0,0,0,6.59c1.92,2.13,6.3,3.59,12.1,3.59,6.14,0,10.19-1.33,12.24-3.63a5,5,0,0,0,1.33-3.26A4.28,4.28,0,0,0,675.85,45.32Z" class="cls-1"/><path data-cppathid="10016" d="M720.39,41V27.33h6.34V57.47a22.81,22.81,0,0,0,.25,2.76h-6.26L720.55,56c-2,3.09-7.93,4.72-14,4.72-8.44,0-13.86-2.09-16.41-5.81a10.45,10.45,0,0,1-1.92-6.09,10.91,10.91,0,0,1,1.88-6.3c2.5-3.8,7.68-6,15.7-6C712.54,36.52,718.05,37.89,720.39,41ZM695.92,45.2a5.44,5.44,0,0,0-1.25,3.55,5.18,5.18,0,0,0,1.25,3.5c2,2.26,6.1,3.34,12.11,3.34s10-1.16,11.61-3.67a5.46,5.46,0,0,0,.87-3.17,5.13,5.13,0,0,0-1.29-3.59c-2-2.17-5.93-3.3-11.73-3.3S697.68,43,695.92,45.2Z" class="cls-1"/><path data-cppathid="10017" d="M769.93,60.23h-6.26l-.16-4.13c-3,3.88-8.77,4.71-14.2,4.71-8.39,0-13.48-2.5-13.48-9.81,0-13.23-.17-13.4-.42-13.73h6.64c.21,0,.25,5.63.25,11.56,0,5,2.46,6.56,9.6,6.56,6.85,0,11.4-2.84,11.4-6.68V37.27h6.51V55.59C769.81,58.85,769.93,60.1,769.93,60.23Z" class="cls-1"/><path data-cppathid="10018" d="M809,46.45c-.79-3-4.71-4.59-12.19-4.59-5.93,0-10.23,1.25-12.31,3.67a5.07,5.07,0,0,0-1.13,3.26,5.21,5.21,0,0,0,1.17,3.3c1.88,2.34,6.51,3.46,12.31,3.46s9-.83,10.65-2.17A5.9,5.9,0,0,0,809,51.54h6.51a9.28,9.28,0,0,1-1.92,4.1c-2.71,3.09-7.93,5.09-16.74,5.09-9.14,0-15.28-2.26-18-5.89a10,10,0,0,1-1.92-6.18,9.53,9.53,0,0,1,2-6c3-3.79,9.23-6.17,18-6.17,9,0,14.49,2.25,17,6a10.16,10.16,0,0,1,1.5,3.92Z" class="cls-1"/><path data-cppathid="10019" d="M831.41,42.9v8.39c0,3.05,1.34,4.18,5,4.18a43.77,43.77,0,0,0,6-.5v4.92a34.39,34.39,0,0,1-8,.84c-5.6,0-9.44-1.8-9.44-8.1V42.9h-7.05V37.6h7.05c.17-1.54.17-5.89.17-5.89l6.22-.16V37.6h11.36v5.3Z" class="cls-1"/><path data-cppathid="10020" d="M885.18,54.13c-2.84,4.09-8.93,6.6-18.37,6.6-8.89,0-15.2-2.51-18.16-6.51a10.17,10.17,0,0,1-1.84-5.6,8.82,8.82,0,0,1,1.76-5.38c3-4.09,9.06-6.72,18.24-6.72,9.52,0,15.36,2.92,18.2,6.59a9.19,9.19,0,0,1,.17,11Zm-6.26-8.81c-2.09-2-6.27-3.46-12.11-3.46S857,43.2,854.66,45.37a4.8,4.8,0,0,0,0,6.59c1.92,2.13,6.31,3.59,12.11,3.59,6.14,0,10.19-1.33,12.23-3.63a5,5,0,0,0,1.34-3.26A4.32,4.32,0,0,0,878.92,45.32Z" class="cls-1"/><path data-cppathid="10021" d="M909.38,60.73c-12.31,0-16.78-1.84-18.16-6.43a5.83,5.83,0,0,1-.29-1.54h6.31A2,2,0,0,0,897.7,54c1,1.12,4,1.75,11.73,1.75,9.72,0,11.1-1.08,11.1-2.5,0-1.59-1.25-1.92-9.68-2.34-1.63-.09-4.55-.29-6.52-.42-9.22-.54-12.81-2.67-12.81-6.85,0-4.59,5.34-7.18,16-7.18s15.57,1.59,17.32,5.89a6.77,6.77,0,0,1,.38,1.84h-6.31a2.41,2.41,0,0,0-.37-.88c-1-1.08-3.84-1.79-10.6-1.79-9.19,0-10.36.87-10.36,2.17s1,1.67,9,2.08c2,.13,5,.3,7,.38,9.73.37,13.07,2.5,13.07,7.05C926.63,58.1,922,60.73,909.38,60.73Z" class="cls-1"/><path data-cppathid="10022" d="M982.18,68l-.21-.21V56.35c-2.88,3-8,4.34-14.94,4.34-7.48,0-12.57-1.92-15.2-5.35a11.26,11.26,0,0,1,.08-13.4c2.64-3.21,8.52-5.42,15.54-5.42,7.3,0,12.48,1.58,14.82,4.67,0-.79,0-3.8,0-3.8h5.84V65a15.73,15.73,0,0,0,.17,3Zm-1.54-22.88c-2-2-6.06-3.25-11.82-3.25-5.05,0-9.77,1.17-11.48,3.42a5.29,5.29,0,0,0-1.25,3.51,5.38,5.38,0,0,0,1.25,3.55c1.84,2.21,5.85,3.3,11.82,3.3s10.06-1.17,11.85-3.72a5.67,5.67,0,0,0,1-3.21A4.86,4.86,0,0,0,980.64,45.11Z" class="cls-1"/><path data-cppathid="10023" d="M1031.06,60.23h-6.26l-.17-4.13c-3,3.88-8.77,4.71-14.19,4.71-8.39,0-13.49-2.5-13.49-9.81,0-13.23-.16-13.4-.41-13.73h6.63c.21,0,.25,5.63.25,11.56,0,5,2.47,6.56,9.61,6.56,6.84,0,11.39-2.84,11.39-6.68V37.27h6.52V55.59C1030.94,58.85,1031.06,60.1,1031.06,60.23Z" class="cls-1"/><path data-cppathid="10024" d="M1041.49,60.23c-.42-.09-.54-1.13-.54-3.47V37.27h6.47V56.72c0,2.59,0,3.17.58,3.51Zm5.09-32.44h6.77L1047,35h-6Z" class="cls-1"/><path data-cppathid="10025" d="M1106.49,49.08c0-3.76-1.76-6.93-8.94-6.93-5,0-9.31,2.05-9.31,6.93V60.23h-6V48.54c0-3.93-3.5-6.39-8.68-6.39-5.84,0-9.52,3.3-9.52,6.81V60.23h-6.43v-23h6.22v5.3c1.63-3.93,6.89-5.89,11.94-5.89,5.3,0,10,1.76,11.53,6,1.75-3.92,6.05-6,12.19-6,9.39,0,12.6,4.59,12.6,11.23,0,11.73.05,12,.42,12.32H1107C1106.49,60.23,1106.49,57.77,1106.49,49.08Z" class="cls-1"/><path data-cppathid="10026" d="M1122.13,34.14v-6.6h6.72v6.6Zm.67,26.09c-.38-.09-.54-1.13-.54-3.47V37.27h6.51V56.72c0,2.59,0,3.17.58,3.51Z" class="cls-1"/><path data-cppathid="10027" d="M1168.72,46.45c-.8-3-4.72-4.59-12.19-4.59-5.93,0-10.23,1.25-12.32,3.67a5.07,5.07,0,0,0-1.12,3.26,5.21,5.21,0,0,0,1.16,3.3c1.88,2.34,6.52,3.46,12.32,3.46s9-.83,10.65-2.17a5.9,5.9,0,0,0,1.46-1.84h6.51a9.39,9.39,0,0,1-1.92,4.1c-2.72,3.09-7.93,5.09-16.74,5.09-9.15,0-15.28-2.26-18-5.89a10,10,0,0,1-1.92-6.18,9.53,9.53,0,0,1,2-6c3-3.79,9.23-6.17,18-6.17,9,0,14.48,2.25,17,6a9.85,9.85,0,0,1,1.5,3.92Z" class="cls-1"/><path data-cppathid="10028" d="M1218,54.13c-2.84,4.09-8.93,6.6-18.37,6.6-8.89,0-15.19-2.51-18.16-6.51a10.24,10.24,0,0,1-1.83-5.6,8.81,8.81,0,0,1,1.75-5.38c3-4.09,9.06-6.72,18.24-6.72,9.52,0,15.37,2.92,18.21,6.59a9.17,9.17,0,0,1,.16,11Zm-6.26-8.81c-2.09-2-6.26-3.46-12.11-3.46s-9.76,1.34-12.14,3.51a4.77,4.77,0,0,0,0,6.59c1.92,2.13,6.3,3.59,12.1,3.59,6.14,0,10.19-1.33,12.24-3.63a5,5,0,0,0,1.33-3.26A4.28,4.28,0,0,0,1211.71,45.32Z" class="cls-1"/><path data-cppathid="10029" d="M1242.18,60.73c-12.32,0-16.78-1.84-18.16-6.43a5.45,5.45,0,0,1-.29-1.54h6.3a2,2,0,0,0,.46,1.25c1,1.12,4,1.75,11.73,1.75,9.73,0,11.11-1.08,11.11-2.5,0-1.59-1.26-1.92-9.69-2.34-1.63-.09-4.55-.29-6.51-.42-9.23-.54-12.82-2.67-12.82-6.85,0-4.59,5.34-7.18,16-7.18s15.57,1.59,17.33,5.89a6.67,6.67,0,0,1,.37,1.84h-6.3a2.46,2.46,0,0,0-.38-.88c-1-1.08-3.84-1.79-10.6-1.79-9.19,0-10.35.87-10.35,2.17s1,1.67,9,2.08c2,.13,5,.3,7,.38,9.73.37,13.07,2.5,13.07,7.05C1259.42,58.1,1254.74,60.73,1242.18,60.73Z" class="cls-1"/></svg>